<svg width="335" height="704" viewBox="0 0 335 704" fill="none" xmlns="http://www.w3.org/2000/svg">
<path d="M1.00003 1L1.00003 0.5L0.500031 0.5L0.500031 1L1.00003 1ZM1 702L0.5 702L0.5 702.5L1 702.5L1 702ZM2.00003 1L2.50003 1L2.50003 0.5L2.00003 0.5L2.00003 1ZM2 702L2 702.5L2.5 702.5L2.5 702L2 702ZM1.00003 2H0.500031V2.5H1.00003V2ZM179 2V2.5H179.5V2H179ZM1.00003 1V0.5H0.500031V1H1.00003ZM179 1H179.5V0.5H179V1ZM1.00003 702H0.500031V702.5H1.00003V702ZM179 702V702.5H179.5V702H179ZM1.00003 701V700.5H0.500031V701H1.00003ZM179 701H179.5V700.5H179V701ZM179.493 1.99995L178.993 1.9932L178.987 2.49315L179.487 2.49991L179.493 1.99995ZM232.311 10.2053L232.45 9.725L232.311 10.2053ZM179.507 1.00005L179.514 0.500091L179.014 0.493335L179.007 0.99329L179.507 1.00005ZM232.589 9.24466L232.45 9.725L232.45 9.725L232.589 9.24466ZM287.342 40.1322L286.967 40.4631L287 40.4999L287.039 40.5297L287.342 40.1322ZM330.996 134.937L330.499 134.996L330.501 135.004L330.996 134.937ZM334 210.505L333.5 210.494V210.505H334ZM334 537.492H333.5V537.5L333.5 537.508L334 537.492ZM305.454 641.439L305.038 641.162L305.038 641.162L305.454 641.439ZM179.494 702.5L178.994 702.494L178.988 702.994L179.487 703L179.494 702.5ZM179.506 701.5L179.513 701L179.013 700.994L179.006 701.494L179.506 701.5ZM304.621 640.886L304.204 640.61L304.204 640.61L304.621 640.886ZM333 537.516L333.5 537.5L333.5 537.5L333 537.516ZM333 537.508H332.5V537.517L332.5 537.525L333 537.508ZM333 210.489V209.989H332.5V210.489H333ZM333 210.489V210.989H333.489L333.5 210.5L333 210.489ZM330.005 135.067L329.508 135.13L329.509 135.134L330.005 135.067ZM330.004 135.059L329.507 135.118L329.507 135.122L330.004 135.059ZM286.697 40.898L287 40.5L287 40.5L286.697 40.898ZM286.658 40.8679L286.283 41.1985L286.316 41.2358L286.355 41.2659L286.658 40.8679ZM286.625 40.8306L287 40.5L287 40.5L286.625 40.8306ZM110 102L110 101.5L109.5 101.5L109.5 102L110 102ZM110 604.988L109.5 604.988L109.5 605.488L110 605.488L110 604.988ZM111 102L111.5 102L111.5 101.5L111 101.5L111 102ZM111 604.988L111 605.488L111.5 605.488L111.5 604.988L111 604.988ZM110 102.717H109.5V103.217H110V102.717ZM172.605 102.717V103.217H173.105V102.717H172.605ZM110 101.717V101.217H109.5V101.717H110ZM172.605 101.717H173.105V101.217H172.605V101.717ZM110 604.988H109.5V605.488H110V604.988ZM172.605 604.988V605.488H173.105V604.988H172.605ZM110 603.988V603.488H109.5V603.988H110ZM172.605 603.988H173.105V603.488H172.605V603.988ZM172.767 102.859L172.267 102.845L172.253 103.345L172.753 103.358L172.767 102.859ZM210.131 130.541L210.59 130.342L210.59 130.342L210.131 130.541ZM172.795 101.859L172.808 101.359L172.309 101.345L172.295 101.845L172.795 101.859ZM211.033 130.106L210.574 130.305L210.59 130.342L210.612 130.376L211.033 130.106ZM226.389 198.118L225.89 198.147L225.89 198.151L226.389 198.118ZM227.445 252.325L226.945 252.319V252.325H227.445ZM227.445 486.95H226.945L226.945 486.958L227.445 486.95ZM217.41 561.489L216.934 561.335L216.934 561.335L217.41 561.489ZM216.64 563.794L217.112 563.957L217.112 563.957L216.64 563.794ZM200.637 592.967L200.268 592.629L200.268 592.629L200.637 592.967ZM197.807 595.81L197.469 595.442L197.469 595.442L197.807 595.81ZM172.768 605.488L172.268 605.475L172.255 605.975L172.755 605.987L172.768 605.488ZM172.794 604.488L172.806 603.988L172.307 603.975L172.294 604.475L172.794 604.488ZM199.899 592.292L199.53 591.954L199.53 591.954L199.899 592.292ZM216.459 561.181L216.934 561.335L216.934 561.335L216.459 561.181ZM219.195 551.743L218.71 551.618L218.71 551.618L219.195 551.743ZM226.445 486.962L225.945 486.966L225.945 486.97L226.445 486.962ZM226.445 486.954H225.945L225.945 486.958L226.445 486.954ZM226.445 252.322L225.945 252.32V252.322H226.445ZM226.445 252.317L225.945 252.312L225.945 252.315L226.445 252.317ZM225.391 198.182L224.892 198.213L224.892 198.215L225.391 198.182ZM225.391 198.178L224.891 198.207L224.892 198.209L225.391 198.178ZM210.17 130.613L209.75 130.884L209.75 130.884L210.17 130.613ZM210.148 130.579L209.689 130.777L209.705 130.815L209.727 130.85L210.148 130.579ZM0.500031 1L0.5 702L1.5 702L1.50003 1L0.500031 1ZM2.00003 0.5L1.00003 0.5L1.00003 1.5L2.00003 1.5L2.00003 0.5ZM2.5 702L2.50003 1L1.50003 1L1.5 702L2.5 702ZM1 702.5L2 702.5L2 701.5L1 701.5L1 702.5ZM1.00003 2.5H179V1.5H1.00003V2.5ZM0.500031 1V2H1.50003V1H0.500031ZM179 0.5H1.00003V1.5H179V0.5ZM179.5 2V1H178.5V2H179.5ZM1.00003 702.5H179V701.5H1.00003V702.5ZM0.500031 701V702H1.50003V701H0.500031ZM179 700.5H1.00003V701.5H179V700.5ZM179.5 702V701H178.5V702H179.5ZM179.487 2.49991C191.739 2.66549 211.825 4.80454 232.172 10.6857L232.45 9.725C212.008 3.81667 191.833 1.66667 179.5 1.5L179.487 2.49991ZM179.007 0.99329L178.993 1.9932L179.993 2.00671L180.007 1.0068L179.007 0.99329ZM232.728 8.76432C212.192 2.82879 191.927 0.667845 179.514 0.500091L179.5 1.5C191.833 1.66667 212.008 3.81667 232.45 9.725L232.728 8.76432ZM287.717 39.8013C274.133 24.4148 253.228 14.6897 232.728 8.76432L232.45 9.725C252.875 15.6285 273.566 25.2843 286.967 40.4631L287.717 39.8013ZM331.493 134.878C325.07 80.6999 299.732 48.9549 287.646 39.7346L287.039 40.5297C298.889 49.5692 324.106 81.0579 330.499 134.996L331.493 134.878ZM334.5 210.516C335.3 173.677 332.833 144.763 331.491 134.87L330.501 135.004C331.834 144.84 334.3 173.702 333.5 210.494L334.5 210.516ZM334.5 537.492V210.505H333.5V537.492H334.5ZM305.871 641.715C328.791 607.115 335.42 565.375 334.5 537.475L333.5 537.508C334.415 565.258 327.814 606.778 305.038 641.162L305.871 641.715ZM179.487 703C243.635 703.804 282.909 676.379 305.871 641.715L305.038 641.162C282.258 675.55 243.3 702.8 179.5 702L179.487 703ZM179.006 701.494L178.994 702.494L179.994 702.506L180.006 701.506L179.006 701.494ZM304.204 640.61C281.608 674.721 242.965 701.796 179.513 701L179.5 702C243.3 702.8 282.258 675.55 305.038 641.162L304.204 640.61ZM332.501 537.533C333.412 565.133 326.84 606.439 304.204 640.61L305.038 641.162C327.817 606.775 334.417 565.25 333.5 537.5L332.501 537.533ZM332.5 537.525L332.501 537.533L333.5 537.5L333.5 537.492L332.5 537.525ZM332.5 537.5V537.508H333.5V537.5H332.5ZM332.5 210.5V537.5H333.5V210.5H332.5ZM332.5 210.489V210.5H333.5V210.489H332.5ZM333 209.989H333V210.989H333V209.989ZM329.509 135.134C330.835 144.911 333.299 173.725 332.5 210.478L333.5 210.5C334.3 173.7 331.833 144.833 330.5 135L329.509 135.134ZM329.507 135.122L329.509 135.13L330.501 135.004L330.5 134.996L329.507 135.122ZM286.395 41.2959C297.99 50.1149 323.135 81.358 329.507 135.118L330.5 135C324.1 81 298.833 49.5 287 40.5L286.395 41.2959ZM286.355 41.2659L286.395 41.296L287 40.5L286.96 40.4699L286.355 41.2659ZM286.25 41.1613L286.283 41.1985L287.033 40.5373L287 40.5L286.25 41.1613ZM232.172 10.6857C252.539 16.5722 273.033 26.1694 286.25 41.1613L287 40.5C273.6 25.3 252.892 15.6333 232.45 9.725L232.172 10.6857ZM109.5 102L109.5 604.988L110.5 604.988L110.5 102L109.5 102ZM111 101.5L110 101.5L110 102.5L111 102.5L111 101.5ZM111.5 604.988L111.5 102L110.5 102L110.5 604.988L111.5 604.988ZM110 605.488L111 605.488L111 604.488L110 604.488L110 605.488ZM110 103.217H172.605V102.217H110V103.217ZM109.5 101.717V102.717H110.5V101.717H109.5ZM172.605 101.217H110V102.217H172.605V101.217ZM173.105 102.717V101.717H172.105V102.717H173.105ZM110 605.488H172.605V604.488H110V605.488ZM109.5 603.988V604.988H110.5V603.988H109.5ZM172.605 603.488H110V604.488H172.605V603.488ZM173.105 604.988V603.988H172.105V604.988H173.105ZM172.753 103.358C181.144 103.59 200.438 109.369 209.672 130.739L210.59 130.342C201.164 108.53 181.457 102.598 172.781 102.359L172.753 103.358ZM172.295 101.845L172.267 102.845L173.267 102.872L173.294 101.873L172.295 101.845ZM211.492 129.908C201.868 107.683 181.764 101.606 172.808 101.359L172.781 102.359C181.452 102.598 201.142 108.523 210.574 130.305L211.492 129.908ZM226.888 198.089C224.635 159.321 215.753 136.54 211.454 129.836L210.612 130.376C214.783 136.88 223.642 159.47 225.89 198.147L226.888 198.089ZM227.945 252.33C228.226 225.906 227.359 205.171 226.888 198.085L225.89 198.151C226.359 205.208 227.226 225.918 226.945 252.319L227.945 252.33ZM227.945 486.95V252.325H226.945V486.95H227.945ZM217.885 561.644C225.942 536.831 228.268 506.918 227.945 486.942L226.945 486.958C227.267 506.87 224.945 536.663 216.934 561.335L217.885 561.644ZM217.112 563.957C217.376 563.191 217.633 562.42 217.885 561.644L216.934 561.335C216.684 562.106 216.428 562.871 216.167 563.632L217.112 563.957ZM201.006 593.305C207.913 585.759 213.164 575.437 217.112 563.957L216.167 563.632C212.243 575.043 207.047 585.223 200.268 592.629L201.006 593.305ZM198.146 596.178C199.13 595.272 200.083 594.313 201.006 593.305L200.268 592.629C199.363 593.618 198.43 594.557 197.469 595.442L198.146 596.178ZM172.755 605.987C182.866 606.246 191.254 602.525 198.146 596.178L197.469 595.442C190.744 601.635 182.602 605.239 172.781 604.988L172.755 605.987ZM172.294 604.475L172.268 605.475L173.268 605.5L173.293 604.501L172.294 604.475ZM199.53 591.954C192.457 599.682 183.686 604.266 172.806 603.988L172.781 604.988C184.001 605.275 193.036 600.53 200.268 592.629L199.53 591.954ZM215.983 561.026C212 573.294 206.627 584.201 199.53 591.954L200.268 592.629C207.5 584.729 212.928 573.672 216.934 561.335L215.983 561.026ZM218.71 551.618C217.885 554.816 216.978 557.961 215.983 561.026L216.934 561.335C217.936 558.249 218.849 555.084 219.679 551.868L218.71 551.618ZM225.945 486.97C226.226 504.333 224.488 529.227 218.71 551.618L219.679 551.868C225.484 529.368 227.227 504.38 226.945 486.954L225.945 486.97ZM225.945 486.958L225.945 486.966L226.945 486.958L226.945 486.95L225.945 486.958ZM225.945 252.322V486.954H226.945V252.322H225.945ZM225.945 252.315L225.945 252.32L226.945 252.325L226.945 252.32L225.945 252.315ZM224.892 198.215C225.359 205.242 226.226 225.929 225.945 252.312L226.945 252.322C227.226 225.917 226.359 205.205 225.89 198.149L224.892 198.215ZM224.892 198.209L224.892 198.213L225.89 198.151L225.89 198.147L224.892 198.209ZM209.75 130.884C213.782 137.141 222.646 159.551 224.891 198.207L225.89 198.149C223.639 159.402 214.752 136.8 210.59 130.342L209.75 130.884ZM209.727 130.85L209.75 130.884L210.59 130.342L210.568 130.308L209.727 130.85ZM209.672 130.739L209.689 130.777L210.607 130.38L210.59 130.342L209.672 130.739Z" fill="white"/>
</svg>
