<svg width="332" height="700" viewBox="0 0 332 700" fill="none" xmlns="http://www.w3.org/2000/svg">
<g clip-path="url(#clip0_203_47)">
<path d="M331.333 526.208V173.776C331.333 79.6959 290.458 44.6699 290.458 44.6699C243.146 -4.62505 167.905 0.546945 167.905 0.546945H0.514648V699.438H167.905C259.773 699.438 290.459 655.316 290.459 655.316C333.03 614.428 331.333 526.208 331.333 526.208ZM214.152 569.475C214.152 569.475 202.937 601.181 169.357 601.181H108.168V98.9439H169.357C169.357 98.9439 196.857 95.2249 214.152 130.651C214.152 130.651 229.094 155.823 229.094 223.432V476.698C229.094 476.698 229.714 540.091 214.152 569.475Z" stroke="white" stroke-miterlimit="10"/>
</g>
<defs>
<clipPath id="clip0_203_47">
<rect width="332" height="700" fill="white"/>
</clipPath>
</defs>
</svg>
