<svg width="332" height="700" viewBox="0 0 332 700" fill="none" xmlns="http://www.w3.org/2000/svg">
<g clip-path="url(#clip0_201_37)">
<path d="M331.333 526.208V173.776C331.333 79.6959 290.458 44.6699 290.458 44.6699C243.146 -4.62505 167.905 0.546945 167.905 0.546945H0.514648V699.438H167.905C259.773 699.438 290.459 655.316 290.459 655.316C333.03 614.428 331.333 526.208 331.333 526.208ZM212.863 568.543C212.863 568.543 201.93 600.097 169.199 600.097H109.555V100.277H169.199C169.199 100.277 196.005 96.5759 212.863 131.83C212.863 131.83 227.427 156.881 227.427 224.164V476.21C227.427 476.21 228.031 539.301 212.863 568.543Z" stroke="white" stroke-miterlimit="10"/>
</g>
<defs>
<clipPath id="clip0_201_37">
<rect width="332" height="700" fill="white"/>
</clipPath>
</defs>
</svg>
