<svg width="334" height="702" viewBox="0 0 334 702" fill="none" xmlns="http://www.w3.org/2000/svg">
<path d="M111 101V100H110V101H111ZM111 601H110V602H111V601ZM1 2H169V1L1 1V2ZM169 2C223.494 2 264.185 16.6169 291.268 45.6817L292 45C264.416 15.3981 223.84 1 169 1V2ZM291.268 45.6817C318.369 74.7654 332 117.482 332 174H333C333 117.185 319.566 74.5829 292 45L291.268 45.6817ZM332 174V528H333V174H332ZM332 528C332 584.518 318.369 627.235 291.268 656.318L292 657C319.566 627.417 333 584.815 333 528H332ZM291.268 656.318C264.185 685.383 223.494 700 169 700L169 701C223.84 701 264.416 686.602 292 657L291.268 656.318ZM169 700H1V701H169L169 700ZM2 701V1H1V701H2ZM167 602C185.205 602 199.18 596.598 208.753 585.659L208 585C198.906 595.394 184.795 601 167 601V602ZM208.73 585.684C218.986 574.744 224 557.1 224 533L223 533C223 556.9 217.744 574.607 208 585L208.73 585.684ZM224 533V169L223 169V533L224 533ZM224 169C224 144.9 219.756 126.44 209.5 115.5L208.5 116.5C218.244 126.893 223 145.1 223 169L224 169ZM209.5 115.5C199.927 104.561 185.205 100 167 100L167 101C184.795 101 199.406 106.107 208.5 116.5L209.5 115.5ZM167 100H111V101L167 101L167 100ZM110 101V601H111V101H110ZM111 602H167V601H111V602Z" fill="white"/>
</svg>
