<svg width="338" height="700" viewBox="0 0 338 700" fill="none" xmlns="http://www.w3.org/2000/svg">
<g clip-path="url(#clip0_212_146)">
<path d="M110 285H109V286H110V285ZM110 385L111 385L109 385H110ZM0 1H110V2.26498e-06H0.999999V1H0ZM109 2.26498e-06V285H110V2.26498e-06H109ZM110 286L228 285L227 284L228 284L110 285V286ZM228 285L229 2.26498e-06L227 0V285H228ZM228 1H338L337 1L338 2.26498e-06H228V1ZM337 2.26498e-06V700V699L338 700V0.0196912L337 2.26498e-06ZM338 699H227.039L228 700H338V699ZM228 700V385H227V700H228ZM228 385L111 385L110.997 386H110H228V385ZM109 385V700H110L111 385L109 385ZM110 699H0L1 699L0 700H109V699L110 699ZM0.999999 700V2.26498e-06H0V700H0.999999Z" fill="white"/>
</g>
<defs>
<clipPath id="clip0_212_146">
<rect width="338" height="700" fill="white"/>
</clipPath>
</defs>
</svg>
