<svg width="309" height="243" viewBox="0 0 309 243" fill="none" xmlns="http://www.w3.org/2000/svg">
<path fill-rule="evenodd" clip-rule="evenodd" d="M34.3567 3.68347C13.4924 17.3609 26.8514 65.5182 35.5971 90.5516C29.173 103.68 25.6197 118.118 25.6197 133.276C25.6197 193.761 82.1952 242.793 151.985 242.793C221.774 242.793 278.35 193.761 278.35 133.276C278.35 115.845 273.651 99.3655 265.291 84.7362C272.938 58.6864 281.631 16.3648 262.286 3.68349C243.098 -8.89539 207.957 13.5919 188.417 28.3804C176.881 25.3751 164.65 23.7601 151.985 23.7601C137.99 23.7601 124.526 25.7319 111.943 29.3724C91.8181 14.628 53.9796 -9.18017 34.3567 3.68347Z" fill="#323232"/>
<path d="M44.9863 16.8195C29.5837 26.9165 45.2142 68.2794 48.6207 76.7472C48.9027 77.4483 49.8217 77.547 50.2974 76.9599C65.7625 57.8739 76.7212 49.3145 98.222 39.1817C98.8808 38.8712 99.025 38.0019 98.461 37.5412C91.9186 32.1966 59.8073 7.10362 44.9863 16.8195Z" fill="#FFEDB4"/>
<path d="M256.042 16.8195C271.444 26.9165 255.814 68.2794 252.407 76.7472C252.125 77.4483 251.206 77.547 250.731 76.9599C235.266 57.8739 224.307 49.3145 202.806 39.1817C202.147 38.8712 202.003 38.0019 202.567 37.5412C209.11 32.1966 241.221 7.10362 256.042 16.8195Z" fill="#FFEDB4"/>
<path d="M259.454 149.239C277.657 146.761 287.984 146.13 306.693 146.877" stroke="#323232" stroke-width="3.5" stroke-linecap="round" stroke-linejoin="round"/>
<path d="M246.323 172.564C266.168 183.703 277.73 189.308 299.418 197.726" stroke="#323232" stroke-width="3.5" stroke-linecap="round" stroke-linejoin="round"/>
<path d="M49.2391 149.239C31.0359 146.761 20.7096 146.13 1.99988 146.877" stroke="#323232" stroke-width="3.5" stroke-linecap="round" stroke-linejoin="round"/>
<path d="M62.3707 172.564C42.5251 183.703 30.9632 189.308 9.27531 197.726" stroke="#323232" stroke-width="3.5" stroke-linecap="round" stroke-linejoin="round"/>
<circle cx="94.1166" cy="144.22" r="30.7055" fill="white"/>
<circle cx="105.429" cy="144.22" r="12.9286" fill="#323232"/>
<circle cx="30.7055" cy="30.7055" r="30.7055" transform="matrix(-1 0 0 1 245.282 113.515)" fill="white"/>
<circle cx="12.9286" cy="12.9286" r="12.9286" transform="matrix(-1 0 0 1 216.193 131.292)" fill="#323232"/>
<ellipse cx="154.347" cy="178.469" rx="12.9908" ry="10.6288" fill="#A27749"/>
</svg>
