<svg width="133" height="103" viewBox="0 0 133 103" fill="none" xmlns="http://www.w3.org/2000/svg">
<path fill-rule="evenodd" clip-rule="evenodd" d="M113.471 35.8754C116.709 24.8465 120.389 6.92847 112.199 1.55949C104.075 -3.76611 89.1976 5.75451 80.9246 12.0156C76.0405 10.7432 70.8624 10.0595 65.5 10.0595C59.5748 10.0595 53.8746 10.8943 48.5474 12.4356C40.0269 6.19315 24.007 -3.88665 15.6991 1.55951C6.86567 7.35021 12.5215 27.7388 16.2243 38.3374C13.5044 43.8955 12 50.0086 12 56.4262C12 82.0338 35.9528 102.793 65.5 102.793C95.0473 102.793 119 82.0338 119 56.4262C119 49.0463 117.011 42.0691 113.471 35.8754Z" fill="#323232"/>
<path d="M20.1995 7.12096C14.1149 11.1097 19.4689 26.6227 21.3845 31.594C21.6562 32.299 22.5767 32.4206 23.0573 31.8375C29.0965 24.5102 33.6307 20.9678 41.9276 16.9746C42.5839 16.6588 42.7085 15.7821 42.1376 15.3298C38.2707 12.2665 26.0516 3.28467 20.1995 7.12096Z" fill="#FFEDB4"/>
<path d="M109.556 7.12096C115.64 11.1097 110.286 26.6227 108.37 31.594C108.099 32.299 107.178 32.4206 106.698 31.8375C100.658 24.5102 96.1243 20.9678 87.8274 16.9746C87.1711 16.6588 87.0465 15.7821 87.6174 15.3298C91.4843 12.2665 103.703 3.28467 109.556 7.12096Z" fill="#FFEDB4"/>
<path d="M111 63.1844C118.707 62.135 123.079 61.8682 131 62.1844" stroke="#323232" stroke-width="3.5" stroke-linecap="round" stroke-linejoin="round"/>
<path d="M105.44 73.0595C113.843 77.7757 118.738 80.1488 127.92 83.7127" stroke="#323232" stroke-width="3.5" stroke-linecap="round" stroke-linejoin="round"/>
<path d="M22 63.1844C14.2932 62.135 9.92126 61.8682 2 62.1844" stroke="#323232" stroke-width="3.5" stroke-linecap="round" stroke-linejoin="round"/>
<path d="M27.5595 73.0595C19.1573 77.7757 14.2623 80.1488 5.08016 83.7127" stroke="#323232" stroke-width="3.5" stroke-linecap="round" stroke-linejoin="round"/>
<circle cx="41" cy="61.0595" r="13" fill="white"/>
<circle cx="45.7895" cy="61.0596" r="5.47368" fill="#323232"/>
<circle cx="13" cy="13" r="13" transform="matrix(-1 0 0 1 105 48.0595)" fill="white"/>
<circle cx="5.47368" cy="5.47368" r="5.47368" transform="matrix(-1 0 0 1 92.6842 55.5859)" fill="#323232"/>
<ellipse cx="66.5" cy="75.5595" rx="5.5" ry="4.5" fill="#A27749"/>
</svg>
