<svg width="128" height="130" viewBox="0 0 128 130" fill="none" xmlns="http://www.w3.org/2000/svg">
<path d="M62.3465 -0.19718C62.975 -1.64262 65.025 -1.64263 65.6535 -0.197183L67.0131 2.92973C67.5851 4.24523 69.3897 4.39841 70.1752 3.19814L72.0389 0.350533C72.9019 -0.96815 74.9223 -0.622885 75.2985 0.907559L76.1143 4.22704C76.4566 5.61969 78.209 6.07473 79.1856 5.02456L81.5007 2.53506C82.5736 1.38136 84.5061 2.06186 84.6194 3.63325L84.8659 7.05234C84.969 8.48201 86.6184 9.22559 87.758 8.3561L90.4604 6.29412C91.7123 5.33892 93.5012 6.33489 93.3487 7.90217L93.0158 11.3237C92.877 12.7494 94.376 13.7597 95.6455 13.0963L98.6607 11.5204C100.055 10.7914 101.649 12.074 101.235 13.5924L100.329 16.9174C99.953 18.2983 101.258 19.5461 102.621 19.1079L105.865 18.0643C107.363 17.5828 108.715 19.1149 108.052 20.5409L106.597 23.6719C105.994 24.9687 107.068 26.4177 108.484 26.2173L111.867 25.7385C113.423 25.5182 114.496 27.2556 113.603 28.5486L111.638 31.3924C110.826 32.5682 111.639 34.1766 113.067 34.2195L116.492 34.3224C118.062 34.3695 118.825 36.2622 117.726 37.3853L115.309 39.8568C114.311 40.8779 114.839 42.5996 116.239 42.8843L119.606 43.569C121.144 43.882 121.575 45.8757 120.304 46.7964L117.506 48.8218C116.349 49.6591 116.578 51.4447 117.909 51.9626L121.119 53.212C122.582 53.7814 122.669 55.8189 121.259 56.5107L118.164 58.0304C116.882 58.6596 116.806 60.458 118.029 61.1939L120.987 62.973C122.332 63.7822 122.072 65.805 120.566 66.2479L117.266 67.2182C115.896 67.621 115.515 69.3809 116.597 70.3135L119.214 72.5704C120.403 73.596 119.804 75.5462 118.244 75.7269L114.836 76.1218C113.417 76.2862 112.744 77.9573 113.653 79.0597L115.852 81.7273C116.851 82.9397 115.929 84.7613 114.361 84.6745L110.945 84.4854C109.518 84.4064 108.57 85.9406 109.281 87.1814L110.997 90.1799C111.778 91.5444 110.56 93.185 109.028 92.8329L105.703 92.0686C104.309 91.7481 103.114 93.1014 103.606 94.4451L104.791 97.6851C105.331 99.1625 103.852 100.575 102.401 99.9675L99.2605 98.6529C97.9396 98.1 96.5324 99.2332 96.7909 100.642L97.4122 104.027C97.6964 105.576 95.9989 106.719 94.6708 105.874L91.8021 104.048C90.5932 103.279 89.0133 104.159 89.0312 105.592L89.0742 109.025C89.0939 110.6 87.2264 111.441 86.0598 110.383L83.5423 108.099C82.4804 107.135 80.7733 107.737 80.5499 109.153L80.0165 112.534C79.7709 114.091 77.7873 114.606 76.8158 113.365L74.7191 110.687C73.8349 109.558 72.0499 109.863 71.5911 111.222L70.4993 114.457C69.9952 115.95 67.9526 116.123 67.2042 114.736L65.5868 111.738C64.9056 110.476 63.0944 110.476 62.4132 111.738L60.7958 114.736C60.0474 116.123 58.0048 115.95 57.5007 114.457L56.4088 111.222C55.9501 109.863 54.1651 109.558 53.2809 110.687L51.1842 113.365C50.2127 114.606 48.2291 114.091 47.9835 112.534L47.4501 109.153C47.2267 107.737 45.5196 107.135 44.4577 108.099L41.9402 110.383C40.7736 111.441 38.9061 110.6 38.9258 109.025L38.9688 105.592C38.9867 104.159 37.4068 103.279 36.1979 104.048L33.3292 105.874C32.0011 106.719 30.3036 105.576 30.5878 104.027L31.2091 100.642C31.4676 99.2332 30.0604 98.1 28.7395 98.6529L25.5988 99.9675C24.1476 100.575 22.6689 99.1625 23.2093 97.6851L24.3942 94.4451C24.8856 93.1014 23.6913 91.7481 22.297 92.0686L18.9718 92.8329C17.4396 93.185 16.222 91.5444 17.0031 90.1799L18.7195 87.1814C19.4297 85.9406 18.4824 84.4064 17.055 84.4854L13.6394 84.6745C12.0706 84.7613 11.149 82.9397 12.1484 81.7273L14.3475 79.0597C15.2562 77.9573 14.5829 76.2862 13.1637 76.1218L9.75587 75.7269C8.19584 75.5462 7.59659 73.596 8.78594 72.5704L11.4032 70.3135C12.4847 69.3809 12.1044 67.621 10.7343 67.2182L7.43384 66.2479C5.92757 65.805 5.66766 63.7822 7.01307 62.973L9.97081 61.1939C11.1943 60.458 11.1177 58.6596 9.83606 58.0304L6.74066 56.5107C5.3314 55.8189 5.41824 53.7814 6.88127 53.212L10.0912 51.9626C11.4218 51.4447 11.6511 49.6591 10.4944 48.8218L7.69648 46.7964C6.42456 45.8757 6.85567 43.882 8.39437 43.569L11.761 42.8843C13.1606 42.5996 13.6893 40.8779 12.6906 39.8568L10.2735 37.3853C9.17524 36.2622 9.93835 34.3695 11.5084 34.3224L14.9326 34.2195C16.3611 34.1766 17.1743 32.5682 16.3619 31.3924L14.397 28.5486C13.5037 27.2556 14.577 25.5182 16.1332 25.7385L19.5157 26.2173C20.9317 26.4177 22.0063 24.9687 21.4033 23.6719L19.9476 20.5409C19.2845 19.1149 20.6375 17.5828 22.1346 18.0643L25.379 19.1079C26.7415 19.5461 28.047 18.2983 27.6706 16.9174L26.7646 13.5924C26.3508 12.074 27.9446 10.7914 29.3393 11.5204L32.3545 13.0963C33.624 13.7597 35.123 12.7494 34.9842 11.3237L34.6513 7.90217C34.4988 6.33489 36.2877 5.33891 37.5396 6.29412L40.242 8.3561C41.3816 9.22559 43.031 8.48201 43.1341 7.05234L43.3806 3.63326C43.4939 2.06186 45.4264 1.38136 46.4993 2.53506L48.8144 5.02457C49.7911 6.07474 51.5434 5.61969 51.8857 4.22704L52.7015 0.907555C53.0777 -0.622889 55.0981 -0.968155 55.9611 0.350528L57.8248 3.19814C58.6103 4.39842 60.4149 4.24523 60.9869 2.92973L62.3465 -0.19718Z" fill="#3B2514"/>
<path d="M62.3344 8.13022C62.9495 6.64701 65.0504 6.64702 65.6655 8.13022L66.3458 9.771C66.9074 11.1253 68.7646 11.2788 69.5409 10.035L70.4514 8.57622C71.3006 7.2156 73.3704 7.55786 73.7364 9.11943L74.1606 10.9291C74.4943 12.3528 76.2948 12.808 77.265 11.714L78.3897 10.4459C79.4504 9.24981 81.4277 9.92362 81.5374 11.5186L81.6717 13.4718C81.7715 14.9233 83.4608 15.6649 84.5969 14.756L85.928 13.691C87.17 12.6973 88.9967 13.6817 88.8497 15.2655L88.6591 17.3188C88.5256 18.7575 90.0539 19.7609 91.321 19.0665L92.8532 18.2268C94.2393 17.4672 95.8623 18.7317 95.4648 20.2615L94.9218 22.3511C94.5613 23.7382 95.885 24.9711 97.2431 24.5131L98.9654 23.9322C100.453 23.4306 101.826 24.9368 101.19 26.3715L100.283 28.4167C99.707 29.7159 100.79 31.1397 102.196 30.9311L104.084 30.6509C105.625 30.422 106.712 32.125 105.854 33.4264L104.595 35.3365C103.82 36.514 104.635 38.0863 106.044 38.1307L108.052 38.194C109.601 38.2427 110.371 40.0929 109.314 41.2259L107.743 42.9108C106.787 43.9357 107.314 45.6116 108.685 45.9039L110.748 46.3438C112.257 46.6656 112.691 48.6106 111.462 49.5434L109.642 50.9249C108.53 51.7691 108.758 53.5028 110.051 54.0304L112.085 54.8606C113.511 55.4425 113.598 57.4283 112.229 58.133L110.243 59.1552C109.003 59.7939 108.926 61.539 110.107 62.2834L112.021 63.4906C113.324 64.3125 113.062 66.2847 111.59 66.7386L109.53 67.3736C108.194 67.7855 107.815 69.4961 108.852 70.434L110.557 71.9757C111.704 73.0124 111.1 74.9166 109.566 75.103L107.521 75.3515C106.125 75.521 105.452 77.1508 106.321 78.2557L107.742 80.0639C108.702 81.2853 107.771 83.0683 106.22 82.9782L104.265 82.8648C102.852 82.7827 101.9 84.2863 102.578 85.5287L103.664 87.5179C104.414 88.8906 103.18 90.5011 101.659 90.1347L99.8499 89.6986C98.4626 89.3642 97.255 90.6977 97.725 92.0452L98.4499 94.1236C98.9686 95.6108 97.465 97.0014 96.0228 96.3684L94.3934 95.6532C93.0756 95.0748 91.6446 96.1975 91.8927 97.6151L92.2569 99.6957C92.5303 101.258 90.7992 102.387 89.4801 101.506L88.0476 100.55C86.8413 99.7456 85.2267 100.622 85.244 102.072L85.268 104.082C85.287 105.677 83.378 106.509 82.2224 105.41L80.9939 104.241C79.9368 103.235 78.1853 103.836 77.9682 105.279L77.6845 107.165C77.4462 108.749 75.4151 109.259 74.4568 107.975L73.4379 106.611C72.5616 105.437 70.7257 105.743 70.2769 107.137L69.7208 108.864C69.2289 110.392 67.1357 110.564 66.4012 109.137L65.6032 107.586C64.9321 106.282 63.0678 106.282 62.3967 107.586L61.5987 109.137C60.8642 110.564 58.771 110.392 58.2791 108.864L57.723 107.137C57.2742 105.743 55.4383 105.437 54.562 106.611L53.5431 107.975C52.5848 109.259 50.5537 108.749 50.3154 107.165L50.0317 105.279C49.8146 103.836 48.0631 103.235 47.006 104.241L45.7775 105.41C44.6219 106.509 42.7129 105.677 42.7319 104.082L42.7559 102.072C42.7732 100.622 41.1586 99.7456 39.9523 100.55L38.5198 101.506C37.2007 102.387 35.4696 101.258 35.743 99.6957L36.1072 97.6151C36.3553 96.1975 34.9243 95.0748 33.6065 95.6532L31.9771 96.3684C30.5349 97.0014 29.0313 95.6108 29.55 94.1236L30.2749 92.0452C30.7449 90.6977 29.5373 89.3642 28.15 89.6986L26.3407 90.1347C24.8203 90.5011 23.5863 88.8906 24.3356 87.5179L25.4216 85.5287C26.0997 84.2863 25.1475 82.7827 23.7345 82.8648L21.7796 82.9782C20.2286 83.0683 19.2975 81.2853 20.2577 80.0639L21.6793 78.2556C22.5479 77.1508 21.8744 75.521 20.4793 75.3515L18.4343 75.103C16.9 74.9166 16.2961 73.0124 17.4426 71.9757L19.1477 70.434C20.185 69.4961 19.806 67.7855 18.4696 67.3736L16.41 66.7386C14.9376 66.2847 14.6761 64.3125 15.9793 63.4906L17.8933 62.2834C19.0735 61.539 18.9973 59.7939 17.7567 59.1552L15.7711 58.133C14.402 57.4283 14.4894 55.4425 15.915 54.8606L17.9492 54.0304C19.242 53.5028 19.4702 51.7691 18.358 50.9249L16.538 49.5434C15.3091 48.6106 15.7432 46.6656 17.252 46.3438L19.3147 45.9039C20.6854 45.6116 21.2131 43.9357 20.2572 42.9108L18.6858 41.2259C17.629 40.0929 18.399 38.2427 19.9476 38.194L21.9557 38.1307C23.3651 38.0863 24.1804 36.514 23.4045 35.3365L22.1459 33.4264C21.2884 32.125 22.3745 30.422 23.9162 30.6509L25.8039 30.9311C27.2096 31.1397 28.2929 29.7159 27.7169 28.4167L26.81 26.3715C26.1738 24.9368 27.5473 23.4306 29.0345 23.9322L30.7568 24.5131C32.1149 24.9711 33.4386 23.7382 33.0781 22.3511L32.5351 20.2615C32.1376 18.7317 33.7607 17.4672 35.1467 18.2268L36.6789 19.0665C37.946 19.7609 39.4743 18.7575 39.3408 17.3188L39.1502 15.2655C39.0032 13.6817 40.8299 12.6973 42.0719 13.691L43.403 14.756C44.5391 15.6649 46.2284 14.9233 46.3282 13.4718L46.4625 11.5186C46.5722 9.92362 48.5495 9.24981 49.6102 10.4459L50.7349 11.714C51.7051 12.808 53.5056 12.3528 53.8393 10.9291L54.2635 9.11943C54.6295 7.55786 56.6993 7.2156 57.5485 8.57622L58.459 10.035C59.2353 11.2788 61.0925 11.1253 61.6541 9.77099L62.3344 8.13022Z" fill="#61432F"/>
<circle cx="36.6106" cy="35.8233" r="8.82334" fill="#FFE6BB"/>
<circle cx="36.1581" cy="35.8129" r="6.10847" fill="#ECC79F"/>
<circle cx="89.4616" cy="35.8233" r="8.82334" fill="#FFE6BB"/>
<circle cx="89.0092" cy="35.8129" r="6.10847" fill="#ECC79F"/>
<path d="M26.3534 56.2051C31.4758 41.24 45.5837 31.0706 61.4011 31.0706H66.2541C82.2433 31.0706 96.4296 41.3258 101.443 56.5086L101.604 56.9957C103.95 64.1009 105.489 71.4477 106.191 78.8973V78.8973C108.234 100.572 91.185 119.304 69.4142 119.304H57.725C36.3567 119.304 19.5673 101.014 21.3916 79.724V79.724C22.0767 71.7296 23.755 63.7964 26.3534 56.2051V56.2051Z" fill="#FFE6BB"/>
<circle cx="40.5106" cy="84.7447" r="4.89362" fill="#FFCEB9"/>
<circle cx="87.4893" cy="84.7447" r="4.89362" fill="#FFCEB9"/>
<path d="M77.7021 67.4346C77.7021 63.4814 71.8601 60.2766 63.4674 60.2766C55.0747 60.2766 50.2979 63.4814 50.2979 67.4346C50.2979 71.3879 55.0747 79.8511 63.4674 79.8511C71.8601 79.8511 77.7021 71.3879 77.7021 67.4346Z" fill="#ECC79F"/>
<rect x="62.9408" y="68.4328" width="1.60441" height="6.41763" rx="0.802204" fill="#3A211F"/>
<ellipse cx="64.0104" cy="67.0958" rx="4.81322" ry="2.94141" fill="#3A211F"/>
<circle cx="61.069" cy="66.0262" r="0.802204" fill="white"/>
<path d="M58.1276 72.4439C60.8016 74.8505 66.7439 74.8505 69.4179 72.4439" stroke="#3A211F" stroke-width="1.76467" stroke-linecap="round"/>
<circle cx="45.8936" cy="58.4156" r="4.40426" fill="#3A211F"/>
<circle cx="47.1131" cy="57.4652" r="1.46809" fill="white"/>
<circle cx="4.40426" cy="4.40426" r="4.40426" transform="matrix(-1 0 0 1 85.7924 54.0113)" fill="#3A211F"/>
<circle cx="1.46809" cy="1.46809" r="1.46809" transform="matrix(-1 0 0 1 84.5453 55.997)" fill="white"/>
<path d="M46.543 66.6872C40.8242 66.185 37.5801 66.0574 31.7021 66.2087" stroke="#ECC79F" stroke-width="1.46809" stroke-linecap="round" stroke-linejoin="round"/>
<path d="M45.073 75.4505C40.1342 76.2978 37.4303 76.9225 32.7694 78.4047" stroke="#ECC79F" stroke-width="1.46809" stroke-linecap="round" stroke-linejoin="round"/>
<path d="M44.6879 71.2334C39.5246 71.0263 37.0035 71.3475 31.8474 71.7879" stroke="#ECC79F" stroke-width="1.46809" stroke-linecap="round" stroke-linejoin="round"/>
<path d="M80.7984 66.6872C86.5172 66.185 89.7614 66.0574 95.6393 66.2087" stroke="#ECC79F" stroke-width="1.46809" stroke-linecap="round" stroke-linejoin="round"/>
<path d="M82.2684 75.4505C87.2072 76.2978 89.9111 76.9225 94.572 78.4047" stroke="#ECC79F" stroke-width="1.46809" stroke-linecap="round" stroke-linejoin="round"/>
<path d="M81.6748 71.2334C86.8381 71.0263 89.3592 71.3475 94.5152 71.7879" stroke="#ECC79F" stroke-width="1.46809" stroke-linecap="round" stroke-linejoin="round"/>
<path d="M10.7365 96.4513C24.2025 111.631 32.9515 115.38 54.2972 121.061" stroke="#412E1A" stroke-width="1.84133" stroke-linecap="round"/>
<path d="M5.07624 94.3364C5.6527 95.0905 6.40052 95.737 7.20125 96.2834C9.65332 97.9565 12.4437 95.6388 11.3292 92.8875C10.9776 92.0195 10.5345 91.1726 9.97697 90.4433C9.45273 89.7575 8.80163 89.1421 8.10612 88.5997C5.7269 86.7443 2.72671 88.8981 3.73205 91.7428C4.06225 92.6772 4.49888 93.5811 5.07624 94.3364Z" fill="#412E1A"/>
<path d="M15.3674 99.0988C15.356 99.7894 15.4546 100.501 15.6078 101.178C15.9862 102.852 18.0073 102.885 18.4404 101.225C18.6157 100.553 18.7376 99.845 18.7489 99.1543C18.7603 98.4637 18.6617 97.7519 18.5085 97.0747C18.1302 95.4015 16.109 95.3683 15.6759 97.0282C15.5006 97.7 15.3787 98.4082 15.3674 99.0988Z" fill="#412E1A"/>
<path d="M13.1555 104.738C13.8462 104.735 14.5559 104.621 15.2298 104.454C16.8948 104.042 16.8864 102.02 15.2179 101.621C14.5427 101.46 13.8321 101.353 13.1414 101.356C12.4507 101.358 11.741 101.472 11.0671 101.639C9.40211 102.051 9.41054 104.073 11.079 104.472C11.7542 104.633 12.4648 104.74 13.1555 104.738Z" fill="#412E1A"/>
<path d="M22.2354 104.973C22.2241 105.663 22.3227 106.375 22.4758 107.052C22.8542 108.725 24.8753 108.759 25.3084 107.099C25.4837 106.427 25.6056 105.719 25.617 105.028C25.6283 104.338 25.5297 103.626 25.3766 102.949C24.9982 101.275 22.977 101.242 22.5439 102.902C22.3687 103.574 22.2467 104.282 22.2354 104.973Z" fill="#412E1A"/>
<path d="M20.9566 111.467C21.6264 111.298 22.288 111.018 22.902 110.693C24.419 109.893 23.9248 107.932 22.2095 107.946C21.5152 107.952 20.7997 108.019 20.1299 108.188C19.4602 108.356 18.7985 108.637 18.1846 108.961C16.6676 109.762 17.1617 111.722 18.8771 111.708C19.5713 111.702 20.2869 111.636 20.9566 111.467Z" fill="#412E1A"/>
<path d="M29.9176 110.351C29.9539 111.04 30.1013 111.744 30.3007 112.409C30.7935 114.052 32.8122 113.946 33.1298 112.26C33.2584 111.578 33.3312 110.863 33.2949 110.173C33.2586 109.483 33.1112 108.78 32.9117 108.115C32.4189 106.472 30.4003 106.578 30.0827 108.264C29.9541 108.946 29.8813 109.661 29.9176 110.351Z" fill="#412E1A"/>
<path d="M29.2113 116.236C29.8499 115.973 30.4644 115.6 31.0254 115.191C32.4116 114.18 31.6411 112.312 29.9456 112.572C29.2593 112.677 28.5608 112.846 27.9222 113.109C27.2836 113.372 26.6691 113.745 26.1081 114.154C24.7219 115.164 25.4924 117.033 27.1879 116.773C27.8742 116.668 28.5728 116.499 29.2113 116.236Z" fill="#412E1A"/>
<path d="M38.3992 113.786C38.4933 114.47 38.6993 115.159 38.954 115.805C39.5831 117.401 41.5856 117.125 41.7605 115.419C41.8313 114.728 41.8438 114.01 41.7497 113.325C41.6556 112.641 41.4495 111.953 41.1949 111.307C40.5658 109.711 38.5632 109.986 38.3883 111.693C38.3176 112.383 38.3051 113.102 38.3992 113.786Z" fill="#412E1A"/>
<path d="M38.5637 120.551C39.1666 120.214 39.7327 119.771 40.2415 119.299C41.4986 118.132 40.5125 116.367 38.8596 116.826C38.1906 117.012 37.5169 117.262 36.9139 117.599C36.311 117.936 35.7449 118.378 35.2361 118.851C33.979 120.018 34.9651 121.782 36.618 121.324C37.287 121.138 37.9607 120.888 38.5637 120.551Z" fill="#412E1A"/>
<path d="M116.341 95.9865C102.876 111.166 94.1265 114.916 72.7808 120.596" stroke="#412E1A" stroke-width="1.84133" stroke-linecap="round"/>
<path d="M122.002 93.8717C121.425 94.6258 120.677 95.2723 119.877 95.8186C117.425 97.4918 114.634 95.1741 115.749 92.4227C116.1 91.5548 116.543 90.7079 117.101 89.9785C117.625 89.2928 118.276 88.6774 118.972 88.135C121.351 86.2796 124.351 88.4334 123.346 91.2781C123.016 92.2125 122.579 93.1164 122.002 93.8717Z" fill="#412E1A"/>
<path d="M111.711 98.6341C111.722 99.3247 111.623 100.037 111.47 100.714C111.092 102.387 109.071 102.42 108.638 100.76C108.462 100.088 108.34 99.3802 108.329 98.6896C108.318 97.999 108.416 97.2872 108.569 96.61C108.948 94.9368 110.969 94.9036 111.402 96.5635C111.577 97.2353 111.699 97.9435 111.711 98.6341Z" fill="#412E1A"/>
<path d="M113.922 104.273C113.232 104.27 112.522 104.157 111.848 103.99C110.183 103.577 110.192 101.556 111.86 101.157C112.535 100.995 113.246 100.888 113.937 100.891C114.627 100.894 115.337 101.007 116.011 101.174C117.676 101.587 117.667 103.608 115.999 104.007C115.324 104.168 114.613 104.276 113.922 104.273Z" fill="#412E1A"/>
<path d="M104.843 104.508C104.854 105.199 104.755 105.91 104.602 106.588C104.224 108.261 102.203 108.294 101.77 106.634C101.594 105.962 101.472 105.254 101.461 104.563C101.45 103.873 101.548 103.161 101.701 102.484C102.08 100.811 104.101 100.777 104.534 102.437C104.709 103.109 104.831 103.817 104.843 104.508Z" fill="#412E1A"/>
<path d="M106.121 111.002C105.452 110.833 104.79 110.553 104.176 110.229C102.659 109.428 103.153 107.468 104.868 107.482C105.563 107.487 106.278 107.554 106.948 107.723C107.618 107.892 108.279 108.172 108.893 108.496C110.41 109.297 109.916 111.257 108.201 111.243C107.507 111.238 106.791 111.171 106.121 111.002Z" fill="#412E1A"/>
<path d="M97.1604 109.886C97.1241 110.576 96.9767 111.279 96.7772 111.944C96.2844 113.587 94.2658 113.481 93.9482 111.795C93.8196 111.113 93.7468 110.398 93.7831 109.708C93.8193 109.019 93.9668 108.315 94.1662 107.65C94.659 106.007 96.6777 106.113 96.9953 107.799C97.1239 108.481 97.1967 109.196 97.1604 109.886Z" fill="#412E1A"/>
<path d="M97.8667 115.771C97.2281 115.508 96.6136 115.135 96.0526 114.726C94.6663 113.716 95.4368 111.847 97.1324 112.107C97.8187 112.212 98.5172 112.381 99.1558 112.644C99.7943 112.908 100.409 113.28 100.97 113.689C102.356 114.7 101.586 116.569 99.89 116.308C99.2038 116.203 98.5052 116.034 97.8667 115.771Z" fill="#412E1A"/>
<path d="M88.6788 113.321C88.5847 114.006 88.3786 114.694 88.124 115.34C87.4949 116.936 85.4923 116.661 85.3175 114.954C85.2467 114.263 85.2342 113.545 85.3283 112.861C85.4224 112.176 85.6284 111.488 85.8831 110.842C86.5122 109.246 88.5147 109.522 88.6896 111.228C88.7604 111.919 88.7729 112.637 88.6788 113.321Z" fill="#412E1A"/>
<path d="M88.5143 120.086C87.9113 119.749 87.3452 119.307 86.8365 118.834C85.5794 117.667 86.5654 115.902 88.2184 116.361C88.8874 116.547 89.5611 116.797 90.164 117.134C90.767 117.471 91.3331 117.913 91.8419 118.386C93.0989 119.553 92.1129 121.318 90.46 120.859C89.791 120.673 89.1173 120.423 88.5143 120.086Z" fill="#412E1A"/>
<path d="M71.0669 109.32C71.0841 109.138 71.0929 108.954 71.0929 108.768C71.0929 105.582 68.528 103 65.364 103C62.2 103 59.6351 105.582 59.6351 108.768C59.6351 109.077 59.6593 109.38 59.7058 109.676C57.7972 108.522 55.3266 108.501 53.4107 109.82C50.8189 111.605 50.2237 115.167 52.0813 117.777C53.0716 119.168 54.5591 120.007 56.1248 120.217C55.9658 120.392 55.8156 120.578 55.6753 120.775C53.8178 123.384 54.413 126.946 57.0047 128.731C59.5965 130.516 63.2034 129.848 65.061 127.239C65.1612 127.098 65.2543 126.954 65.3404 126.808C65.4264 126.954 65.5195 127.098 65.6198 127.239C67.4774 129.848 71.0843 130.516 73.6761 128.731C76.2678 126.946 76.863 123.384 75.0054 120.775C74.8405 120.543 74.6617 120.327 74.4711 120.126C75.8462 119.817 77.1228 119.016 78.005 117.777C79.8626 115.167 79.2674 111.605 76.6756 109.82C74.9824 108.654 72.8559 108.535 71.0669 109.32Z" fill="#FFCE05"/>
<circle cx="65.6877" cy="116.99" r="4.32162" transform="rotate(24.6549 65.6877 116.99)" fill="white" fill-opacity="0.6"/>
<path d="M51.9603 31.137C51.9688 31.0468 51.9732 30.9553 51.9732 30.8628C51.9732 29.2817 50.7001 28 49.1296 28C47.5592 28 46.2861 29.2817 46.2861 30.8628C46.2861 31.0163 46.2981 31.167 46.3212 31.3139C45.3738 30.7407 44.1475 30.7303 43.1965 31.3852C41.9101 32.2712 41.6147 34.0393 42.5367 35.3345C43.0282 36.0249 43.7666 36.4416 44.5437 36.5459C44.4648 36.6325 44.3902 36.7248 44.3206 36.8226C43.3986 38.1178 43.694 39.8859 44.9805 40.7719C46.2669 41.6579 48.0572 41.3262 48.9792 40.031C49.029 39.9611 49.0752 39.8898 49.1179 39.8174C49.1606 39.8898 49.2068 39.9611 49.2566 40.031C50.1786 41.3262 51.9689 41.6579 53.2554 40.7719C54.5418 39.8859 54.8372 38.1178 53.9152 36.8226C53.8333 36.7076 53.7446 36.6002 53.65 36.5006C54.3325 36.3473 54.9662 35.9495 55.404 35.3345C56.326 34.0393 56.0306 32.2712 54.7442 31.3852C53.9037 30.8064 52.8482 30.7473 51.9603 31.137Z" fill="white"/>
<circle cx="49.2903" cy="34.9439" r="2.14505" transform="rotate(24.6549 49.2903 34.9439)" fill="#FFE36B"/>
<path d="M67.0026 28.137C67.0112 28.0468 67.0156 27.9553 67.0156 27.8628C67.0156 26.2817 65.7371 25 64.1599 25C62.5828 25 61.3043 26.2817 61.3043 27.8628C61.3043 28.0163 61.3164 28.167 61.3396 28.3139C60.3882 27.7407 59.1566 27.7303 58.2016 28.3852C56.9097 29.2712 56.6131 31.0393 57.539 32.3345C58.0326 33.0249 58.7741 33.4416 59.5546 33.5459C59.4753 33.6325 59.4004 33.7248 59.3305 33.8226C58.4046 35.1178 58.7012 36.8859 59.9931 37.7719C61.285 38.6579 63.083 38.3262 64.0089 37.031C64.0589 36.9611 64.1053 36.8898 64.1482 36.8174C64.1911 36.8898 64.2375 36.9611 64.2874 37.031C65.2134 38.3262 67.0113 38.6579 68.3032 37.7719C69.5951 36.8859 69.8918 35.1178 68.9658 33.8226C68.8836 33.7076 68.7945 33.6002 68.6995 33.5006C69.3849 33.3473 70.0213 32.9495 70.461 32.3345C71.3869 31.0393 71.0903 29.2712 69.7984 28.3852C68.9544 27.8064 67.8944 27.7473 67.0026 28.137Z" fill="#FFCE05"/>
<ellipse cx="2.15259" cy="2.14664" rx="2.15259" ry="2.14664" transform="matrix(0.909505 0.415692 -0.418615 0.908164 63.2622 29.0996)" fill="white" fill-opacity="0.6"/>
<path d="M80.9603 31.137C80.9688 31.0468 80.9732 30.9553 80.9732 30.8628C80.9732 29.2817 79.7001 28 78.1296 28C76.5592 28 75.2861 29.2817 75.2861 30.8628C75.2861 31.0163 75.2981 31.167 75.3212 31.3139C74.3738 30.7407 73.1475 30.7303 72.1965 31.3852C70.9101 32.2712 70.6147 34.0393 71.5367 35.3345C72.0282 36.0249 72.7666 36.4416 73.5437 36.5459C73.4648 36.6325 73.3902 36.7248 73.3206 36.8226C72.3986 38.1178 72.694 39.8859 73.9805 40.7719C75.2669 41.6579 77.0572 41.3262 77.9792 40.031C78.029 39.9611 78.0752 39.8898 78.1179 39.8174C78.1606 39.8898 78.2068 39.9611 78.2566 40.031C79.1786 41.3262 80.9689 41.6579 82.2554 40.7719C83.5418 39.8859 83.8372 38.1178 82.9152 36.8226C82.8333 36.7076 82.7446 36.6002 82.65 36.5006C83.3325 36.3473 83.9662 35.9495 84.404 35.3345C85.326 34.0393 85.0306 32.2712 83.7442 31.3852C82.9037 30.8064 81.8482 30.7473 80.9603 31.137Z" fill="white"/>
<circle cx="78.2903" cy="34.9439" r="2.14505" transform="rotate(24.6549 78.2903 34.9439)" fill="#FFE36B"/>
</svg>
