<svg width="132" height="117" viewBox="0 0 132 117" fill="none" xmlns="http://www.w3.org/2000/svg">
<path d="M54.6018 38.7525C56.7762 36.6618 57.7615 34.0529 56.8694 30.618C53.9689 19.4505 31.0136 4.76924 17.8767 9.04628C4.73975 13.3233 -2.25017 24.8564 0.650249 36.0239C1.30272 38.5362 2.46632 40.7659 4.02763 42.6644C3.24868 45.5842 3.29945 48.4206 4.33607 50.9188C5.49807 53.7191 7.74913 55.7337 10.7023 56.9189C9.85236 59.3876 9.76595 61.7245 10.5942 63.7205C13.4128 70.513 25.7559 70.7874 38.1633 64.3335C50.5707 57.8796 58.3441 47.1413 55.5255 40.3488C55.285 39.7692 54.9751 39.2371 54.6018 38.7525Z" fill="#C4C4C4"/>
<path d="M77.3982 38.7525C75.2238 36.6618 74.2385 34.0529 75.1306 30.618C78.0311 19.4505 100.986 4.76926 114.123 9.04629C127.26 13.3233 134.25 24.8564 131.35 36.024C130.697 38.5362 129.534 40.7659 127.972 42.6645C128.751 45.5842 128.701 48.4206 127.664 50.9188C126.502 53.7191 124.251 55.7337 121.298 56.919C122.148 59.3877 122.234 61.7245 121.406 63.7206C118.587 70.513 106.244 70.7875 93.8367 64.3335C81.4293 57.8796 73.6559 47.1413 76.4745 40.3488C76.715 39.7692 77.0249 39.2371 77.3982 38.7525Z" fill="#C4C4C4"/>
<ellipse cx="26.9674" cy="38.0706" rx="17.6578" ry="19.4741" fill="#EAEAEA"/>
<ellipse cx="104.908" cy="38.0706" rx="17.6578" ry="19.4741" fill="#EAEAEA"/>
<path d="M106 51C106 70.2042 106.01 85 66.2453 85C26.4804 85 25.5 70.2042 25.5 51C25.5 31.7958 44.6521 7 66.6136 7C88.5752 7 106 31.7958 106 51Z" fill="#C4C4C4"/>
<circle cx="48.196" cy="48.0826" r="3.28661" fill="#606060"/>
<circle cx="84.3487" cy="48.0826" r="3.28661" fill="#606060"/>
<path d="M67 56V61.5C67 63.9853 69.0147 66 71.5 66H72.8033C74.5688 66 76 64.5688 76 62.8033V62.8033" stroke="#606060" stroke-width="1.64331" stroke-linecap="round" stroke-linejoin="round"/>
<path d="M67 56V61.5C67 63.9853 64.9853 66 62.5 66H61.1967C59.4312 66 58 64.5688 58 62.8033V62.8033" stroke="#606060" stroke-width="1.64331" stroke-linecap="round" stroke-linejoin="round"/>
<path d="M74.8894 52.6C74.8894 57.2392 76.5503 61 67 61C57.4497 61 59.1106 57.2392 59.1106 52.6C59.1106 47.9608 62.6428 43 67 43C71.3572 43 74.8894 47.9608 74.8894 52.6Z" fill="#606060"/>
<circle cx="63.5" cy="48.5" r="1.5" fill="white"/>
<circle cx="38" cy="61" r="7" fill="#FFCEB9"/>
<circle cx="95" cy="61" r="7" fill="#FFCEB9"/>
<path d="M29.9409 92.8423C50.6156 84.1339 63.4591 81.3634 86.7066 80.0372" stroke="#56392B" stroke-width="3.49573" stroke-linecap="round"/>
<path d="M89.5339 71.6497C85.708 75.2045 83.7321 78.9804 85.192 80.308C86.652 81.6357 91.1694 80.0652 94.9953 76.5104C98.8212 72.9557 100.976 67.3037 100.741 67.09C100.506 66.8763 93.3598 68.0949 89.5339 71.6497Z" fill="#34876F"/>
<g style="mix-blend-mode:multiply">
<path fill-rule="evenodd" clip-rule="evenodd" d="M84.8671 79.8645C90.0554 75.0489 94.5934 71.5394 100.228 67.4811C94.8703 71.6468 90.8528 75.4885 85.8304 80.2912C85.7398 80.3778 85.6488 80.4648 85.5576 80.5521C85.4205 80.4858 85.2982 80.4046 85.1921 80.3081C85.053 80.1817 84.9452 80.033 84.8671 79.8645Z" fill="#34876F" fill-opacity="0.5"/>
</g>
<path d="M91.725 87.5284C86.9981 85.3081 83.9658 82.3137 84.9519 80.6043C85.938 78.895 90.7192 79.0147 95.4461 81.235C100.173 83.4553 103.947 88.1823 103.788 88.4574C103.63 88.7325 96.4519 89.7487 91.725 87.5284Z" fill="#34876F"/>
<g style="mix-blend-mode:multiply">
<path fill-rule="evenodd" clip-rule="evenodd" d="M84.7774 81.126C91.1861 84.1321 96.5775 86.0923 103.18 88.2413C96.8085 85.9057 91.8117 83.4705 85.5649 80.4261C85.4522 80.3711 85.3392 80.316 85.2257 80.2607C85.1153 80.3656 85.0235 80.4802 84.9518 80.6045C84.8579 80.7673 84.8005 80.9417 84.7774 81.126Z" fill="#34876F" fill-opacity="0.5"/>
</g>
<path d="M67.1702 74.1633C64.1242 77.479 62.6831 80.8587 64.0282 81.9003C65.3734 82.9419 69.1489 81.2845 72.195 77.9689C75.241 74.6533 76.7079 69.6491 76.4914 69.4814C76.2749 69.3138 70.2162 70.8477 67.1702 74.1633Z" fill="#34876F"/>
<g style="mix-blend-mode:multiply">
<path fill-rule="evenodd" clip-rule="evenodd" d="M63.7187 81.5412C67.8498 77.0491 71.511 73.724 76.0771 69.8524C71.7563 73.7973 68.5651 77.3726 64.5757 81.8422C64.5037 81.9229 64.4315 82.0039 64.359 82.0851C64.2367 82.0375 64.1261 81.976 64.0283 81.9003C63.9001 81.8011 63.7973 81.6807 63.7187 81.5412Z" fill="#34876F" fill-opacity="0.5"/>
</g>
<path d="M69.0473 88.2682C65.0912 86.1186 62.6326 83.3883 63.5676 81.967C64.5026 80.5456 68.6115 80.89 72.5676 83.0396C76.5238 85.1891 79.5332 89.4479 79.3827 89.6767C79.2322 89.9055 73.0035 90.4177 69.0473 88.2682Z" fill="#34876F"/>
<g style="mix-blend-mode:multiply">
<path fill-rule="evenodd" clip-rule="evenodd" d="M63.3911 82.4069C68.755 85.3178 73.2962 87.277 78.8704 89.4599C73.5044 87.1281 69.3268 84.7799 64.1043 81.8443C64.01 81.7914 63.9155 81.7382 63.8206 81.6849C63.7203 81.7695 63.6355 81.8636 63.5675 81.9669C63.4785 82.1023 63.4203 82.2495 63.3911 82.4069Z" fill="#34876F" fill-opacity="0.5"/>
</g>
<path d="M46.9249 79.4631C44.4488 83.2333 43.5699 86.8076 45.0681 87.6202C46.5663 88.4328 50.0315 86.1843 52.5076 82.4142C54.9837 78.644 55.6257 73.4594 55.3846 73.3286C55.1435 73.1978 49.401 75.693 46.9249 79.4631Z" fill="#34876F"/>
<g style="mix-blend-mode:multiply">
<path fill-rule="evenodd" clip-rule="evenodd" d="M44.7041 87.3151C48.063 82.2066 51.1457 78.3277 55.0349 73.7623C51.4001 78.3606 48.8224 82.4109 45.6 87.4744C45.5419 87.5658 45.4835 87.6575 45.425 87.7495C45.2964 87.7222 45.1771 87.6793 45.0681 87.6202C44.9254 87.5428 44.8043 87.4404 44.7041 87.3151Z" fill="#34876F" fill-opacity="0.5"/>
</g>
<path d="M50.7747 93.312C46.8114 91.1585 44.3484 88.4233 45.2851 86.9993C46.2217 85.5754 50.3381 85.9205 54.3014 88.0739C58.2647 90.2274 61.2796 94.4939 61.1288 94.7231C60.978 94.9522 54.738 95.4654 50.7747 93.312Z" fill="#34876F"/>
<g style="mix-blend-mode:multiply">
<path fill-rule="evenodd" clip-rule="evenodd" d="M45.1084 87.4402C50.4819 90.3563 55.0313 92.319 60.6157 94.5059C55.2399 92.1699 51.0548 89.8174 45.8228 86.8765C45.7284 86.8235 45.6337 86.7703 45.5386 86.7168C45.4382 86.8017 45.3532 86.8958 45.2851 86.9994C45.1959 87.135 45.1376 87.2824 45.1084 87.4402Z" fill="#34876F" fill-opacity="0.5"/>
</g>
<path d="M75.2876 23.0406C69.5806 19.3578 66.1924 14.9714 67.7603 12.9395C69.3282 10.9076 75.47 11.8924 81.177 15.5752C86.884 19.2581 90.9273 26.0063 90.675 26.3334C90.4226 26.6604 80.9946 26.7235 75.2876 23.0406Z" fill="#34876F"/>
<g style="mix-blend-mode:multiply">
<path fill-rule="evenodd" clip-rule="evenodd" d="M67.4449 13.5813C75.183 18.5692 81.7917 22.0322 89.929 25.9491C82.1218 21.8319 76.1043 17.8251 68.5815 12.816C68.4458 12.7256 68.3097 12.635 68.173 12.544C68.0125 12.6599 67.8743 12.7917 67.7603 12.9395C67.611 13.133 67.5066 13.3478 67.4449 13.5813Z" fill="#34876F" fill-opacity="0.5"/>
</g>
<path d="M58.7971 11.2227C63.0555 8.47474 65.5836 5.20179 64.4137 3.68566C63.2438 2.16953 58.661 2.90434 54.4027 5.65235C50.1443 8.40035 47.1274 13.4356 47.3157 13.6796C47.504 13.9237 54.5388 13.9708 58.7971 11.2227Z" fill="#34876F"/>
<g style="mix-blend-mode:multiply">
<path fill-rule="evenodd" clip-rule="evenodd" d="M64.6491 4.16465C58.8752 7.88642 53.9441 10.4704 47.8723 13.393C53.6977 10.3209 58.1878 7.33118 63.801 3.59359C63.9022 3.52617 64.0038 3.45851 64.1058 3.39061C64.2256 3.47714 64.3287 3.57549 64.4138 3.68574C64.5252 3.8301 64.603 3.9904 64.6491 4.16465Z" fill="#34876F" fill-opacity="0.5"/>
</g>
</svg>
