<svg width="132" height="130" viewBox="0 0 132 130" fill="none" xmlns="http://www.w3.org/2000/svg">
<path d="M94.2798 121.901C88.3093 122.307 82.7606 120.158 78.7557 116.406C75.3219 120.664 70.1318 123.545 64.1613 123.951C56.7559 124.455 49.9994 121.027 46.0329 115.487C43.0414 117.62 39.4194 118.981 35.453 119.251C24.5779 119.992 15.1023 112.253 13.8068 101.797C6.27748 99.2869 0.637668 92.5675 0.0501091 84.3264C-0.487232 76.7897 3.34075 69.9409 9.43 66.1438C5.18285 62.7884 2.31911 57.7838 1.9096 52.04C1.1274 41.0689 9.59536 31.5556 20.8233 30.7913C20.9502 30.7826 21.0769 30.7751 21.2034 30.7688C20.6321 19.9524 29.0364 10.6406 40.1398 9.88473C43.022 9.68854 45.8059 10.0879 48.3653 10.9757C51.4926 4.90538 57.7218 0.555527 65.1635 0.0489626C74.1972 -0.565974 82.2652 4.67007 85.481 12.4542C87.6115 11.52 89.9437 10.9304 92.409 10.7625C103.637 9.99824 113.373 18.2725 114.155 29.2435C114.29 31.1337 114.15 32.9806 113.769 34.747C122.614 36.4171 129.563 43.7192 130.219 52.9168C130.545 57.4885 129.265 61.807 126.848 65.3449C129.743 68.5211 131.624 72.6245 131.95 77.1961C132.732 88.1672 124.264 97.6806 113.036 98.4449C112.995 98.4477 112.953 98.4504 112.912 98.4529C113.046 99.1722 113.14 99.9059 113.194 100.652C113.976 111.623 105.508 121.137 94.2798 121.901Z" fill="#764C24"/>
<path d="M114 71.4201C114 90.6323 93.0955 109 66 109C38.9045 109 18 92.4097 18 73.1975C18 65.9602 20.9665 57.7617 26.1129 50.3532C22.5324 48.3809 20.1215 44.681 20.1215 40.442C20.1215 34.1314 25.4644 29.0157 32.0552 29.0157C36.5253 29.0157 40.4213 31.3689 42.4658 34.852C49.3651 30.637 57.3684 28 66 28C74.3918 28 82.1897 30.322 88.9567 34.0985C91.0971 31.0338 94.7444 29.0157 98.884 29.0157C105.475 29.0157 110.818 34.1314 110.818 40.442C110.818 44.1349 108.988 47.4186 106.149 49.5074C111.134 56.5082 114 64.3066 114 71.4201Z" fill="#FFCF63"/>
<circle cx="31.8948" cy="40.7895" r="7.30827" fill="#FFE7B1"/>
<circle cx="100.105" cy="40.7895" r="7.30827" fill="#FFE7B1"/>
<path fill-rule="evenodd" clip-rule="evenodd" d="M33.4144 99.448C33.1423 98.1613 33 96.8428 33 95.5C33 81.4167 48.6553 70 65.5 70C82.3447 70 98 81.4167 98 95.5C98 96.8078 97.865 98.0927 97.6066 99.3475C89.2455 105.242 78.2561 109 66 109C53.2594 109 41.8877 105.332 33.4144 99.448Z" fill="#FFE7B1"/>
<g style="mix-blend-mode:multiply" opacity="0.5">
<path fill-rule="evenodd" clip-rule="evenodd" d="M43.4981 34.3844C42.1531 38.8993 41.2365 44.9309 45 47C52.2757 51 59.9212 42.1193 59.9212 42.1193C59.9212 42.1193 58.4999 52.0002 66.9999 52C75.4999 51.9999 74.395 42.1193 74.395 42.1193C74.395 42.1193 79.2631 50.918 86.4999 47.9999C91.1727 46.1158 89.6027 38.7435 87.9036 33.7558C87.8938 33.7696 87.884 33.7835 87.8743 33.7974C81.4264 30.2074 73.9961 28 66 28C57.7754 28 50.1495 30.5068 43.5754 34.5136C43.5499 34.4704 43.5242 34.4273 43.4981 34.3844Z" fill="#FFCF63"/>
</g>
<path d="M66.1342 71.4118V77.4444C66.1342 79.4145 67.7313 81.0115 69.7013 81.0115H70.1997C71.8945 81.0115 73.2684 79.6376 73.2684 77.9427V77.9427" stroke="#6B4A32" stroke-width="2" stroke-linecap="round" stroke-linejoin="round"/>
<path d="M66.1342 71.4118V77.4444C66.1342 79.4145 64.5372 81.0115 62.5671 81.0115H62.0688C60.3739 81.0115 59 79.6376 59 77.9427V77.9427" stroke="#6B4A32" stroke-width="2" stroke-linecap="round" stroke-linejoin="round"/>
<path d="M73.1177 71.9516C73.1177 74.199 69.9573 76.0209 66.0588 76.0209C62.1603 76.0209 59 74.199 59 71.9516C59 69.7042 62.1603 67 66.0588 67C69.9573 67 73.1177 69.7042 73.1177 71.9516Z" fill="#6B4A32"/>
<ellipse cx="62.2624" cy="70.1761" rx="1.02344" ry="0.983047" fill="white"/>
<circle cx="41" cy="66" r="8" fill="#6B4A32"/>
<circle cx="43.7007" cy="64.4658" r="2.76923" transform="rotate(-150 43.7007 64.4658)" fill="white"/>
<circle cx="39.9782" cy="69.3584" r="1.84615" transform="rotate(-150 39.9782 69.3584)" fill="white"/>
<circle cx="92" cy="66" r="8" fill="#6B4A32"/>
<circle cx="94.7007" cy="64.4658" r="2.76923" transform="rotate(-150 94.7007 64.4658)" fill="white"/>
<circle cx="90.9782" cy="69.3584" r="1.84615" transform="rotate(-150 90.9782 69.3584)" fill="white"/>
<circle cx="32.5" cy="82.5" r="7.5" fill="#FEB1AA"/>
<circle cx="99.5" cy="82.5" r="7.5" fill="#FEB1AA"/>
<circle cx="45.25" cy="80.25" r="1.25" fill="#6B4A32" fill-opacity="0.7"/>
<circle cx="49.25" cy="81.25" r="1.25" fill="#6B4A32" fill-opacity="0.7"/>
<circle cx="46.25" cy="84.25" r="1.25" fill="#6B4A32" fill-opacity="0.7"/>
<circle cx="1.25" cy="1.25" r="1.25" transform="matrix(-1 0 0 1 88 79)" fill="#6B4A32" fill-opacity="0.7"/>
<circle cx="1.25" cy="1.25" r="1.25" transform="matrix(-1 0 0 1 84 80)" fill="#6B4A32" fill-opacity="0.7"/>
<circle cx="1.25" cy="1.25" r="1.25" transform="matrix(-1 0 0 1 87 83)" fill="#6B4A32" fill-opacity="0.7"/>
<path fill-rule="evenodd" clip-rule="evenodd" d="M17.0913 5.34656C16.5188 4.97179 15.886 4.88385 15.3554 5.10524C14.8248 5.32664 14.4423 5.83821 14.3058 6.50879C14.1805 7.12482 14.2642 7.83021 14.5416 8.49502C14.819 9.15983 15.2614 9.71555 15.7874 10.0598C16.36 10.4346 16.9927 10.5225 17.5234 10.3011C18.054 10.0797 18.4365 9.56817 18.573 8.8976C18.6983 8.28156 18.6146 7.57618 18.3372 6.91137C18.0598 6.24656 17.6174 5.6908 17.0913 5.34656ZM19.6427 11.7404C18.1857 10.9748 16.6922 10.8416 15.4372 11.3652C14.1823 11.8888 13.2263 13.0441 12.7456 14.6182C12.3134 16.0331 12.3464 17.5752 12.8339 18.7435C13.0706 19.311 13.4245 19.6708 13.8856 19.8131C14.3407 19.9536 14.8262 19.8628 15.3236 19.6552C15.8529 19.4344 16.3956 19.0814 16.9288 18.7346C17.3947 18.4315 17.8349 18.1452 18.2022 17.9919C18.5192 17.8597 19.0009 17.7561 19.5107 17.6465C20.7023 17.3905 22.0528 17.1001 22.5257 16.196C22.7505 15.7662 22.7461 15.2646 22.5127 14.7051C22.0253 13.5369 20.9524 12.4286 19.6427 11.7404ZM11.0457 6.90352C11.5763 6.68212 12.209 6.77007 12.7816 7.14484C13.3075 7.4891 13.75 8.04485 14.0274 8.70965C14.3048 9.37449 14.3885 10.0798 14.2632 10.6959C14.1268 11.3665 13.7442 11.878 13.2136 12.0995C12.6829 12.3209 12.0503 12.2329 11.4777 11.8581C10.9516 11.5138 10.5092 10.9581 10.2318 10.2933C9.95444 9.62849 9.87072 8.9231 9.99604 8.30707C10.1325 7.63651 10.515 7.12493 11.0457 6.90352ZM22.3619 7.93553C22.0161 7.50902 21.5624 7.28358 21.0844 7.30078C20.6997 7.31463 20.3331 7.49245 20.0522 7.8015C19.665 8.22736 19.4657 8.85632 19.5055 9.52705C19.538 10.0752 19.7281 10.5895 20.0409 10.9754C20.3867 11.4019 20.8404 11.6273 21.3185 11.6101C21.4839 11.6042 21.6459 11.5679 21.7993 11.5039C22.0026 11.4191 22.1906 11.2855 22.3507 11.1094C22.7379 10.6835 22.9372 10.0546 22.8974 9.38385L22.8974 9.38383C22.8649 8.83576 22.6747 8.3214 22.3619 7.93553ZM9.65805 12.1383C10.2331 12.1627 10.8203 12.4634 11.269 12.9635C11.6357 13.3722 11.8675 13.8692 11.9218 14.3629C11.9817 14.9087 11.8228 15.3897 11.4742 15.7174C11.3536 15.8308 11.2138 15.9205 11.0605 15.9845C10.8572 16.0693 10.6301 16.1089 10.3922 16.0988C9.81719 16.0744 9.23002 15.7736 8.78122 15.2736L8.78121 15.2736C8.41452 14.8649 8.1827 14.3679 8.12849 13.8742C8.06857 13.3284 8.22752 12.8474 8.57604 12.5197C8.85647 12.256 9.24074 12.1205 9.65805 12.1383Z" fill="#BE7E40" fill-opacity="0.74"/>
<path fill-rule="evenodd" clip-rule="evenodd" d="M115.476 114.347C116.048 113.972 116.681 113.884 117.211 114.105C117.742 114.327 118.125 114.838 118.261 115.509C118.386 116.125 118.303 116.83 118.025 117.495C117.748 118.16 117.305 118.716 116.779 119.06C116.207 119.435 115.574 119.523 115.044 119.301C114.513 119.08 114.13 118.568 113.994 117.898C113.869 117.282 113.952 116.576 114.23 115.911C114.507 115.247 114.95 114.691 115.476 114.347ZM112.924 120.74C114.381 119.975 115.875 119.842 117.13 120.365C118.385 120.889 119.341 122.044 119.821 123.618C120.253 125.033 120.22 126.575 119.733 127.743C119.496 128.311 119.142 128.671 118.681 128.813C118.226 128.954 117.741 128.863 117.243 128.655C116.714 128.434 116.171 128.081 115.638 127.735C115.172 127.431 114.732 127.145 114.365 126.992C114.048 126.86 113.566 126.756 113.056 126.647C111.865 126.39 110.514 126.1 110.041 125.196C109.816 124.766 109.821 124.265 110.054 123.705C110.542 122.537 111.614 121.429 112.924 120.74ZM121.521 115.904C120.991 115.682 120.358 115.77 119.785 116.145C119.259 116.489 118.817 117.045 118.539 117.71C118.262 118.374 118.178 119.08 118.304 119.696C118.44 120.366 118.823 120.878 119.353 121.099C119.884 121.321 120.517 121.233 121.089 120.858C121.615 120.514 122.058 119.958 122.335 119.293C122.612 118.628 122.696 117.923 122.571 117.307C122.434 116.637 122.052 116.125 121.521 115.904ZM110.205 116.936C110.551 116.509 111.004 116.284 111.483 116.301C111.867 116.315 112.234 116.492 112.515 116.801C112.902 117.227 113.101 117.856 113.061 118.527C113.029 119.075 112.839 119.589 112.526 119.975C112.18 120.402 111.727 120.627 111.248 120.61C111.083 120.604 110.921 120.568 110.768 120.504C110.564 120.419 110.376 120.286 110.216 120.109C109.829 119.684 109.63 119.055 109.67 118.384L109.67 118.384C109.702 117.836 109.892 117.321 110.205 116.936ZM122.909 121.138C122.334 121.163 121.747 121.463 121.298 121.964C120.931 122.372 120.699 122.869 120.645 123.363C120.585 123.909 120.744 124.39 121.093 124.717C121.213 124.831 121.353 124.92 121.506 124.984C121.71 125.069 121.937 125.109 122.175 125.099C122.75 125.074 123.337 124.774 123.786 124.274L123.786 124.274C124.152 123.865 124.384 123.368 124.438 122.874C124.498 122.328 124.339 121.847 123.991 121.52C123.71 121.256 123.326 121.121 122.909 121.138Z" fill="#BE7E40" fill-opacity="0.74"/>
<path d="M85.7022 25.9454C85.7156 25.8032 85.7225 25.659 85.7225 25.5131C85.7225 23.0206 83.7155 21 81.2397 21C78.7639 21 76.7569 23.0206 76.7569 25.5131C76.7569 25.7551 76.7758 25.9926 76.8122 26.2243C75.3187 25.3207 73.3855 25.3042 71.8863 26.3367C69.8583 27.7334 69.3926 30.5208 70.8461 32.5626C71.621 33.6511 72.7849 34.3079 74.0101 34.4723C73.8857 34.609 73.7682 34.7545 73.6584 34.9087C72.2049 36.9504 72.6706 39.7379 74.6986 41.1346C76.7267 42.5313 79.549 42.0084 81.0026 39.9666C81.081 39.8564 81.1539 39.744 81.2212 39.6298C81.2885 39.744 81.3614 39.8564 81.4399 39.9666C82.8934 42.0084 85.7158 42.5313 87.7438 41.1346C89.7718 39.7379 90.2376 36.9504 88.784 34.9087C88.6549 34.7273 88.5151 34.558 88.3659 34.4009C89.4419 34.1593 90.4409 33.5322 91.1311 32.5626C92.5847 30.5208 92.1189 27.7334 90.0909 26.3367C88.766 25.4242 87.102 25.331 85.7022 25.9454Z" fill="white"/>
<g style="mix-blend-mode:multiply">
<circle cx="81.493" cy="31.9468" r="3.38163" transform="rotate(24.6549 81.493 31.9468)" fill="#FFCE05" fill-opacity="0.6"/>
</g>
</svg>
