<svg width="140" height="130" viewBox="0 0 140 130" fill="none" xmlns="http://www.w3.org/2000/svg">
<g clip-path="url(#clip0_205_10)">
<path d="M98.2798 121.901C92.3093 122.307 86.7606 120.158 82.7557 116.406C79.3219 120.664 74.1318 123.545 68.1613 123.951C60.7559 124.455 53.9994 121.027 50.0329 115.487C47.0414 117.62 43.4194 118.981 39.453 119.251C28.5779 119.992 19.1023 112.253 17.8068 101.797C10.2775 99.2869 4.63767 92.5675 4.05011 84.3264C3.51277 76.7897 7.34075 69.9409 13.43 66.1438C9.18285 62.7884 6.31911 57.7838 5.9096 52.04C5.1274 41.0689 13.5954 31.5556 24.8233 30.7913C24.9502 30.7826 25.0769 30.7751 25.2034 30.7688C24.6321 19.9524 33.0364 10.6406 44.1398 9.88473C47.022 9.68854 49.8059 10.0879 52.3653 10.9757C55.4926 4.90538 61.7218 0.555527 69.1635 0.0489626C78.1972 -0.565974 86.2652 4.67007 89.481 12.4542C91.6115 11.52 93.9437 10.9304 96.409 10.7625C107.637 9.99824 117.373 18.2725 118.155 29.2435C118.29 31.1337 118.15 32.9806 117.769 34.747C126.614 36.4171 133.563 43.7192 134.219 52.9168C134.545 57.4885 133.265 61.807 130.848 65.3449C133.743 68.5211 135.624 72.6245 135.95 77.1961C136.732 88.1672 128.264 97.6806 117.036 98.4449C116.995 98.4477 116.953 98.4504 116.912 98.4529C117.046 99.1722 117.14 99.9059 117.194 100.652C117.976 111.623 109.508 121.137 98.2798 121.901Z" fill="#764C24"/>
<path d="M118 71.4201C118 90.6323 97.0955 109 70 109C42.9045 109 22 92.4097 22 73.1975C22 65.9602 24.9665 57.7617 30.1129 50.3532C26.5324 48.3809 24.1215 44.681 24.1215 40.442C24.1215 34.1314 29.4644 29.0157 36.0552 29.0157C40.5253 29.0157 44.4213 31.3689 46.4658 34.852C53.3651 30.637 61.3684 28 70 28C78.3918 28 86.1897 30.322 92.9567 34.0985C95.0971 31.0338 98.7444 29.0157 102.884 29.0157C109.475 29.0157 114.818 34.1314 114.818 40.442C114.818 44.1349 112.988 47.4186 110.149 49.5074C115.134 56.5082 118 64.3066 118 71.4201Z" fill="#FFCF63"/>
<circle cx="35.8948" cy="40.7895" r="7.30827" fill="#FFE7B1"/>
<circle cx="104.105" cy="40.7895" r="7.30827" fill="#FFE7B1"/>
<path fill-rule="evenodd" clip-rule="evenodd" d="M37.4144 99.448C37.1423 98.1613 37 96.8428 37 95.5C37 81.4167 52.6553 70 69.5 70C86.3447 70 102 81.4167 102 95.5C102 96.8078 101.865 98.0927 101.607 99.3475C93.2455 105.242 82.2561 109 70 109C57.2594 109 45.8877 105.332 37.4144 99.448Z" fill="#FFE7B1"/>
<g style="mix-blend-mode:multiply" opacity="0.5">
<path fill-rule="evenodd" clip-rule="evenodd" d="M47.4981 34.3844C46.1531 38.8993 45.2365 44.9309 49 47C56.2757 51 63.9212 42.1193 63.9212 42.1193C63.9212 42.1193 62.4999 52.0002 70.9999 52C79.4999 51.9999 78.395 42.1193 78.395 42.1193C78.395 42.1193 83.2631 50.918 90.4999 47.9999C95.1727 46.1158 93.6027 38.7435 91.9036 33.7558C91.8938 33.7696 91.884 33.7835 91.8743 33.7974C85.4264 30.2074 77.9961 28 70 28C61.7754 28 54.1495 30.5068 47.5754 34.5136C47.5499 34.4704 47.5242 34.4273 47.4981 34.3844Z" fill="#FFCF63"/>
</g>
<path d="M70.1342 71.4118V77.4444C70.1342 79.4145 71.7313 81.0115 73.7013 81.0115H74.1997C75.8945 81.0115 77.2684 79.6376 77.2684 77.9427V77.9427" stroke="#6B4A32" stroke-width="2" stroke-linecap="round" stroke-linejoin="round"/>
<path d="M70.1342 71.4118V77.4444C70.1342 79.4145 68.5372 81.0115 66.5671 81.0115H66.0688C64.3739 81.0115 63 79.6376 63 77.9427V77.9427" stroke="#6B4A32" stroke-width="2" stroke-linecap="round" stroke-linejoin="round"/>
<path d="M77.1177 71.9516C77.1177 74.199 73.9573 76.0209 70.0588 76.0209C66.1603 76.0209 63 74.199 63 71.9516C63 69.7042 66.1603 67 70.0588 67C73.9573 67 77.1177 69.7042 77.1177 71.9516Z" fill="#6B4A32"/>
<ellipse cx="66.2624" cy="70.1761" rx="1.02344" ry="0.983047" fill="white"/>
<circle cx="45" cy="66" r="8" fill="#6B4A32"/>
<circle cx="47.7007" cy="64.4658" r="2.76923" transform="rotate(-150 47.7007 64.4658)" fill="white"/>
<circle cx="43.9782" cy="69.3584" r="1.84615" transform="rotate(-150 43.9782 69.3584)" fill="white"/>
<circle cx="96" cy="66" r="8" fill="#6B4A32"/>
<circle cx="98.7007" cy="64.4658" r="2.76923" transform="rotate(-150 98.7007 64.4658)" fill="white"/>
<circle cx="94.9782" cy="69.3584" r="1.84615" transform="rotate(-150 94.9782 69.3584)" fill="white"/>
<circle cx="36.5" cy="82.5" r="7.5" fill="#FEB1AA"/>
<circle cx="103.5" cy="82.5" r="7.5" fill="#FEB1AA"/>
<circle cx="49.25" cy="80.25" r="1.25" fill="#6B4A32" fill-opacity="0.7"/>
<circle cx="53.25" cy="81.25" r="1.25" fill="#6B4A32" fill-opacity="0.7"/>
<circle cx="50.25" cy="84.25" r="1.25" fill="#6B4A32" fill-opacity="0.7"/>
<circle cx="1.25" cy="1.25" r="1.25" transform="matrix(-1 0 0 1 92 79)" fill="#6B4A32" fill-opacity="0.7"/>
<circle cx="1.25" cy="1.25" r="1.25" transform="matrix(-1 0 0 1 88 80)" fill="#6B4A32" fill-opacity="0.7"/>
<circle cx="1.25" cy="1.25" r="1.25" transform="matrix(-1 0 0 1 91 83)" fill="#6B4A32" fill-opacity="0.7"/>
<path fill-rule="evenodd" clip-rule="evenodd" d="M21.0913 5.34656C20.5188 4.97179 19.886 4.88385 19.3554 5.10524C18.8248 5.32664 18.4423 5.83821 18.3058 6.50879C18.1805 7.12482 18.2642 7.83021 18.5416 8.49502C18.819 9.15983 19.2614 9.71555 19.7874 10.0598C20.36 10.4346 20.9927 10.5225 21.5234 10.3011C22.054 10.0797 22.4365 9.56817 22.573 8.8976C22.6983 8.28156 22.6146 7.57618 22.3372 6.91137C22.0598 6.24656 21.6174 5.6908 21.0913 5.34656ZM23.6427 11.7404C22.1857 10.9748 20.6922 10.8416 19.4372 11.3652C18.1823 11.8888 17.2263 13.0441 16.7456 14.6182C16.3134 16.0331 16.3464 17.5752 16.8339 18.7435C17.0706 19.311 17.4245 19.6708 17.8856 19.8131C18.3407 19.9536 18.8262 19.8628 19.3236 19.6552C19.8529 19.4344 20.3956 19.0814 20.9288 18.7346C21.3947 18.4315 21.8349 18.1452 22.2022 17.9919C22.5192 17.8597 23.0009 17.7561 23.5107 17.6465C24.7023 17.3905 26.0528 17.1001 26.5257 16.196C26.7505 15.7662 26.7461 15.2646 26.5127 14.7051C26.0253 13.5369 24.9524 12.4286 23.6427 11.7404ZM15.0457 6.90352C15.5763 6.68212 16.209 6.77007 16.7816 7.14484C17.3075 7.4891 17.75 8.04485 18.0274 8.70965C18.3048 9.37449 18.3885 10.0798 18.2632 10.6959C18.1268 11.3665 17.7442 11.878 17.2136 12.0995C16.6829 12.3209 16.0503 12.2329 15.4777 11.8581C14.9516 11.5138 14.5092 10.9581 14.2318 10.2933C13.9544 9.62849 13.8707 8.9231 13.996 8.30707C14.1325 7.63651 14.515 7.12493 15.0457 6.90352ZM26.3619 7.93553C26.0161 7.50902 25.5624 7.28358 25.0844 7.30078C24.6997 7.31463 24.3331 7.49245 24.0522 7.8015C23.665 8.22736 23.4657 8.85632 23.5055 9.52705C23.538 10.0752 23.7281 10.5895 24.0409 10.9754C24.3867 11.4019 24.8404 11.6273 25.3185 11.6101C25.4839 11.6042 25.6459 11.5679 25.7993 11.5039C26.0026 11.4191 26.1906 11.2855 26.3507 11.1094C26.7379 10.6835 26.9372 10.0546 26.8974 9.38385L26.8974 9.38383C26.8649 8.83576 26.6747 8.3214 26.3619 7.93553ZM13.6581 12.1383C14.2331 12.1627 14.8203 12.4634 15.269 12.9635C15.6357 13.3722 15.8675 13.8692 15.9218 14.3629C15.9817 14.9087 15.8228 15.3897 15.4742 15.7174C15.3536 15.8308 15.2138 15.9205 15.0605 15.9845C14.8572 16.0693 14.6301 16.1089 14.3922 16.0988C13.8172 16.0744 13.23 15.7736 12.7812 15.2736L12.7812 15.2736C12.4145 14.8649 12.1827 14.3679 12.1285 13.8742C12.0686 13.3284 12.2275 12.8474 12.576 12.5197C12.8565 12.256 13.2407 12.1205 13.6581 12.1383Z" fill="#BE7E40" fill-opacity="0.74"/>
<path fill-rule="evenodd" clip-rule="evenodd" d="M119.476 114.347C120.048 113.972 120.681 113.884 121.211 114.105C121.742 114.327 122.125 114.838 122.261 115.509C122.386 116.125 122.303 116.83 122.025 117.495C121.748 118.16 121.305 118.716 120.779 119.06C120.207 119.435 119.574 119.523 119.044 119.301C118.513 119.08 118.13 118.568 117.994 117.898C117.869 117.282 117.952 116.576 118.23 115.911C118.507 115.247 118.95 114.691 119.476 114.347ZM116.924 120.74C118.381 119.975 119.875 119.842 121.13 120.365C122.385 120.889 123.341 122.044 123.821 123.618C124.253 125.033 124.22 126.575 123.733 127.743C123.496 128.311 123.142 128.671 122.681 128.813C122.226 128.954 121.741 128.863 121.243 128.655C120.714 128.434 120.171 128.081 119.638 127.735C119.172 127.431 118.732 127.145 118.365 126.992C118.048 126.86 117.566 126.756 117.056 126.647C115.865 126.39 114.514 126.1 114.041 125.196C113.816 124.766 113.821 124.265 114.054 123.705C114.542 122.537 115.614 121.429 116.924 120.74ZM125.521 115.904C124.991 115.682 124.358 115.77 123.785 116.145C123.259 116.489 122.817 117.045 122.539 117.71C122.262 118.374 122.178 119.08 122.304 119.696C122.44 120.366 122.823 120.878 123.353 121.099C123.884 121.321 124.517 121.233 125.089 120.858C125.615 120.514 126.058 119.958 126.335 119.293C126.612 118.628 126.696 117.923 126.571 117.307C126.434 116.637 126.052 116.125 125.521 115.904ZM114.205 116.936C114.551 116.509 115.004 116.284 115.483 116.301C115.867 116.315 116.234 116.492 116.515 116.801C116.902 117.227 117.101 117.856 117.061 118.527C117.029 119.075 116.839 119.589 116.526 119.975C116.18 120.402 115.727 120.627 115.248 120.61C115.083 120.604 114.921 120.568 114.768 120.504C114.564 120.419 114.376 120.286 114.216 120.109C113.829 119.684 113.63 119.055 113.67 118.384L113.67 118.384C113.702 117.836 113.892 117.321 114.205 116.936ZM126.909 121.138C126.334 121.163 125.747 121.463 125.298 121.964C124.931 122.372 124.699 122.869 124.645 123.363C124.585 123.909 124.744 124.39 125.093 124.717C125.213 124.831 125.353 124.92 125.506 124.984C125.71 125.069 125.937 125.109 126.175 125.099C126.75 125.074 127.337 124.774 127.786 124.274L127.786 124.274C128.152 123.865 128.384 123.368 128.438 122.874C128.498 122.328 128.339 121.847 127.991 121.52C127.71 121.256 127.326 121.121 126.909 121.138Z" fill="#BE7E40" fill-opacity="0.74"/>
<path d="M89.7022 25.9454C89.7156 25.8032 89.7225 25.659 89.7225 25.5131C89.7225 23.0206 87.7155 21 85.2397 21C82.7639 21 80.7569 23.0206 80.7569 25.5131C80.7569 25.7551 80.7758 25.9926 80.8122 26.2243C79.3187 25.3207 77.3855 25.3042 75.8863 26.3367C73.8583 27.7334 73.3926 30.5208 74.8461 32.5626C75.621 33.6511 76.7849 34.3079 78.0101 34.4723C77.8857 34.609 77.7682 34.7545 77.6584 34.9087C76.2049 36.9504 76.6706 39.7379 78.6986 41.1346C80.7267 42.5313 83.549 42.0084 85.0026 39.9666C85.081 39.8564 85.1539 39.744 85.2212 39.6298C85.2885 39.744 85.3614 39.8564 85.4399 39.9666C86.8934 42.0084 89.7158 42.5313 91.7438 41.1346C93.7718 39.7379 94.2376 36.9504 92.784 34.9087C92.6549 34.7273 92.5151 34.558 92.3659 34.4009C93.4419 34.1593 94.4409 33.5322 95.1311 32.5626C96.5847 30.5208 96.1189 27.7334 94.0909 26.3367C92.766 25.4242 91.102 25.331 89.7022 25.9454Z" fill="white"/>
<g style="mix-blend-mode:multiply">
<circle cx="85.493" cy="31.9468" r="3.38163" transform="rotate(24.6549 85.493 31.9468)" fill="#FFCE05" fill-opacity="0.6"/>
</g>
</g>
<defs>
<clipPath id="clip0_205_10">
<rect width="140" height="130" fill="white"/>
</clipPath>
</defs>
</svg>
