<svg width="140" height="130" viewBox="0 0 140 130" fill="none" xmlns="http://www.w3.org/2000/svg">
<g clip-path="url(#clip0_205_10)">
<path d="M40.2485 9.75892C43.246 12.3051 30.103 16.7598 31.9479 24.1143C33.7921 31.4694 46.1666 20.4374 48.934 23.9733C51.7013 27.5092 35.888 33.3567 41.8631 42.2428C47.8383 51.1289 62 47.5931 62 47.5931V51.2706C62 51.2706 30.3332 60.1808 19.8806 37.5515C9.42715 14.9214 18.1897 0 23.7236 0C29.2576 0 24.9533 8.83935 28.0279 11.3855C31.1025 13.9317 37.2509 7.21345 40.2485 9.75892Z" fill="#FED080"/>
<path d="M99.7515 9.75892C96.754 12.3051 109.897 16.7598 108.052 24.1143C106.208 31.4694 93.8334 20.4374 91.066 23.9733C88.2987 27.5092 104.112 33.3567 98.1369 42.2428C92.1617 51.1289 78 47.5931 78 47.5931V51.2706C78 51.2706 109.667 60.1808 120.119 37.5515C130.573 14.9214 121.81 0 116.276 0C110.742 0 115.047 8.83935 111.972 11.3855C108.898 13.9317 102.749 7.21345 99.7515 9.75892Z" fill="#FED080"/>
<ellipse cx="18.1895" cy="10.749" rx="18.1895" ry="10.749" transform="matrix(0.930138 -0.36721 0.375592 0.926785 5.06393 57.4261)" fill="#BF8969"/>
<g style="mix-blend-mode:multiply">
<ellipse cx="12.5694" cy="7.42788" rx="12.5694" ry="7.42788" transform="matrix(0.930138 -0.36721 0.375592 0.926785 11.5387 58.4404)" fill="#BF8969"/>
</g>
<ellipse cx="18.1895" cy="10.749" rx="18.1895" ry="10.749" transform="matrix(-0.930138 -0.36721 -0.375592 0.926785 134.976 57.4262)" fill="#BF8969"/>
<g style="mix-blend-mode:multiply">
<ellipse cx="12.5694" cy="7.42788" rx="12.5694" ry="7.42788" transform="matrix(-0.930138 -0.36721 -0.375592 0.926785 128.501 58.4404)" fill="#BF8969"/>
</g>
<path d="M67.7968 21.0612C67.7653 18.866 68.9275 17.0482 70.3926 17.0009C71.8578 16.9537 73.0712 18.6949 73.1027 20.8901L73.1475 24.0053L73.8522 21.1045C74.3534 19.0412 75.8761 17.9774 77.2533 18.7284C78.6304 19.4793 79.3405 21.7607 78.8392 23.824L76.4191 33.7862C75.9178 35.8495 74.3951 36.9133 73.0179 36.1623C72.577 35.9219 72.2045 35.5246 71.9182 35.0278C71.5464 35.3466 71.1176 35.5347 70.6591 35.5495C70.2835 35.5616 69.9244 35.4561 69.5975 35.2556C69.3529 36.3769 68.7793 37.3244 67.9821 37.7592C66.6049 38.5101 65.0822 37.4463 64.5809 35.383L62.1608 25.4208C61.6595 23.3575 62.3696 21.0761 63.7467 20.3252C65.1239 19.5742 66.6466 20.638 67.1478 22.7013L67.8626 25.6437L67.7968 21.0612Z" fill="#BF8969"/>
<path d="M27.9886 65.2904C30.2686 43.5268 48.6173 27 70.5 27C92.3827 27 110.731 43.5268 113.011 65.2905L115.323 87.3597C117.823 111.223 99.1095 132 75.1154 132H65.8846C41.8905 132 23.1766 111.223 25.6766 87.3596L27.9886 65.2904Z" fill="#BF8969"/>
<ellipse cx="70.5" cy="105.5" rx="48.5" ry="25.5" fill="#FED080"/>
<ellipse cx="41" cy="80.4" rx="4" ry="2.4" fill="#FFCEB9"/>
<ellipse cx="100" cy="80.4" rx="4" ry="2.4" fill="#FFCEB9"/>
<circle cx="9" cy="9" r="9" transform="matrix(-1 0 0 1 56 59)" fill="#4B2B1D"/>
<circle cx="3" cy="3" r="3" transform="matrix(-1 0 0 1 53 62)" fill="white"/>
<circle cx="1.5" cy="1.5" r="1.5" transform="matrix(-1 0 0 1 47 69)" fill="white"/>
<circle cx="94" cy="68" r="9" fill="#4B2B1D"/>
<circle cx="91" cy="65" r="3" fill="white"/>
<circle cx="95.5" cy="70.5" r="1.5" fill="white"/>
<path d="M63.1356 94.5405L69.5 92L76.5761 94.5405V97.2286C76.5761 100.94 73.5673 103.949 69.8558 103.949C66.1443 103.949 63.1356 100.94 63.1356 97.2286V94.5405Z" fill="#FEB1AA"/>
<path d="M78.6439 81.8156C78.6439 84.3137 74.7093 86.3389 69.8558 86.3389C65.0023 86.3389 61.0678 84.3137 61.0678 81.8156C61.0678 79.3175 65.0023 76 69.8558 76C74.7093 76 78.6439 79.3175 78.6439 81.8156Z" fill="#4B2B1D"/>
<circle cx="73.7329" cy="79.3601" r="1.29236" fill="white"/>
<path d="M69.816 80.056V89.2019C69.816 92.1887 72.2373 94.61 75.224 94.61H75.9796C78.5491 94.61 80.632 92.527 80.632 89.9575V89.9575" stroke="#4B2B1D" stroke-width="2.27455" stroke-linecap="round" stroke-linejoin="round"/>
<path d="M69.8161 80.056V89.2019C69.8161 92.1887 67.3948 94.61 64.408 94.61H63.6525C61.083 94.61 59 92.527 59 89.9575V89.9575" stroke="#4B2B1D" stroke-width="2.27455" stroke-linecap="round" stroke-linejoin="round"/>
<path fill-rule="evenodd" clip-rule="evenodd" d="M86.1365 115.757C84.9504 115.757 84.023 116.784 84.1603 117.962C85.3945 128.555 87.3113 134.637 94.4722 142.41C94.9123 142.888 95.563 143.111 96.2058 143.017L96.7586 142.936C97.3748 144.416 98.4139 145.57 99.6003 146.581C100.021 146.939 100.652 146.889 101.01 146.468C101.368 146.048 101.318 145.417 100.898 145.058C99.9954 144.29 99.2918 143.515 98.8252 142.634L101.715 142.211C102.313 143.829 103.407 145.064 104.668 146.139C105.089 146.497 105.72 146.446 106.078 146.026C106.436 145.606 106.386 144.975 105.966 144.616C104.969 143.767 104.215 142.911 103.755 141.912L106.302 141.539C106.915 143.054 107.968 144.227 109.173 145.254C109.593 145.613 110.225 145.562 110.583 145.142C110.941 144.722 110.891 144.09 110.47 143.732C109.545 142.943 108.828 142.148 108.362 141.238L110.897 140.867C111.519 142.28 112.53 143.392 113.678 144.37C114.098 144.728 114.73 144.678 115.088 144.258C115.446 143.837 115.396 143.206 114.975 142.848C114.121 142.12 113.444 141.386 112.979 140.562L115.498 140.193C116.126 141.507 117.092 142.557 118.183 143.486C118.603 143.844 119.234 143.794 119.593 143.374C119.951 142.953 119.901 142.322 119.48 141.964C118.698 141.297 118.065 140.626 117.606 139.885L120.107 139.518C120.735 140.735 121.656 141.722 122.688 142.602C123.108 142.96 123.739 142.91 124.098 142.489C124.456 142.069 124.405 141.438 123.985 141.08C123.276 140.475 122.689 139.867 122.244 139.206L124.724 138.843C125.347 139.965 126.22 140.889 127.193 141.718C127.613 142.076 128.244 142.026 128.602 141.605C128.961 141.185 128.91 140.554 128.49 140.196C127.636 139.468 126.96 138.735 126.494 137.911C126.931 137.248 126.978 136.338 126.462 135.603C121.833 129.014 119.512 124.403 117.541 117.257C117.299 116.377 116.504 115.757 115.591 115.757H86.1365Z" fill="#C03A2B"/>
<path d="M23.1652 96.733C23.2848 95.9676 24.1942 95.6212 24.8058 96.0966C50.5807 116.131 91.8344 115.243 115.787 96.072C116.379 95.5975 117.274 95.9067 117.429 96.65L121.758 117.43C122.492 120.952 120.793 124.557 117.517 126.043C86.691 140.026 52.7973 140.001 23.9583 125.97C20.9401 124.501 19.3445 121.186 19.8626 117.87L23.1652 96.733Z" fill="#E64C3C"/>
</g>
<defs>
<clipPath id="clip0_205_10">
<rect width="140" height="130" fill="white"/>
</clipPath>
</defs>
</svg>
