<svg width="126" height="113" viewBox="0 0 126 113" fill="none" xmlns="http://www.w3.org/2000/svg">
<path d="M27.3721 50.9803C22.63 45.8237 17.8892 41.413 16.2575 35.5963C12.3072 21.5153 19.6835 6.41285 19.9447 5.83042L20.9089 3.66237C21.191 3.02818 21.9768 2.80487 22.5502 3.19593L24.4859 4.51595C25.3284 5.09046 52.2095 19.2458 42.3788 40.3922L27.3721 50.9803Z" fill="#B9997B"/>
<path d="M29.6659 48.5615C26.1753 44.7658 22.6857 41.5192 21.4847 37.2377C18.577 26.873 24.0064 15.7565 24.1987 15.3278L24.7657 14.0531C25.0477 13.4189 25.8335 13.1956 26.4069 13.5866L27.5414 14.3602C28.1616 14.7831 47.948 25.2025 40.7119 40.7678L29.6659 48.5615Z" fill="#FDF5CF"/>
<path d="M98.6279 50.9803C103.37 45.8237 108.111 41.413 109.743 35.5963C113.693 21.5153 106.317 6.41285 106.055 5.83042L105.091 3.66237C104.809 3.02818 104.023 2.80487 103.45 3.19593L101.514 4.51595C100.672 5.09046 73.7905 19.2458 83.6212 40.3922L98.6279 50.9803Z" fill="#B9997B"/>
<path d="M96.3341 48.5615C99.8246 44.7658 103.314 41.5192 104.515 37.2377C107.423 26.873 101.993 15.7565 101.801 15.3278L101.234 14.0531C100.952 13.4189 100.166 13.1956 99.593 13.5866L98.4586 14.3602C97.8384 14.7831 78.0519 25.2025 85.2881 40.7678L96.3341 48.5615Z" fill="#FDF5CF"/>
<path fill-rule="evenodd" clip-rule="evenodd" d="M69.129 9.20016C71.5769 10.0911 72.839 12.7977 71.9481 15.2456L68.399 24.9964C67.6357 27.0936 65.5397 28.3204 63.4155 28.0686C63.067 28.322 62.6776 28.5315 62.2525 28.6862C59.8047 29.5772 57.0981 28.315 56.2071 25.8672L52.6581 16.1164C51.7672 13.6685 53.0293 10.9619 55.4771 10.071C57.925 9.18003 60.6316 10.4421 61.5225 12.89L62.1446 14.5992L63.0837 12.0192C63.9746 9.57134 66.6812 8.30922 69.129 9.20016Z" fill="#B9997B"/>
<path fill-rule="evenodd" clip-rule="evenodd" d="M100.185 47.9755C100.231 48.3347 100.443 48.6536 100.757 48.8339C111.006 54.7176 117.909 65.7705 117.909 78.4358C117.909 97.2737 102.637 112.545 83.7995 112.545H44.1378C25.2999 112.545 10.0287 97.2737 10.0287 78.4358C10.0287 65.7706 16.9317 54.7176 27.1805 48.8339C27.4945 48.6536 27.7066 48.3347 27.7527 47.9755C29.8548 31.5989 43.8473 18.9432 60.7958 18.9432H67.1416C84.09 18.9432 98.0826 31.5989 100.185 47.9755Z" fill="#B9997B"/>
<path fill-rule="evenodd" clip-rule="evenodd" d="M115.804 90.2587C110.996 103.269 98.4809 112.545 83.7996 112.545H44.1378C29.4565 112.545 16.9415 103.269 12.1335 90.2587C16.9415 77.2481 29.4565 67.9726 44.1378 67.9726H83.7996C98.4809 67.9726 110.996 77.2481 115.804 90.2587Z" fill="#FDF5CF"/>
<ellipse cx="39.0007" cy="56.2725" rx="6.68583" ry="8.35729" fill="#433D3C"/>
<ellipse cx="37.3292" cy="53.3474" rx="2.50719" ry="2.92505" fill="white"/>
<circle cx="41.09" cy="57.526" r="1.25359" fill="white"/>
<ellipse cx="6.68583" cy="8.35729" rx="6.68583" ry="8.35729" transform="matrix(-1 0 0 1 95.8303 47.9151)" fill="#433D3C"/>
<ellipse cx="2.50719" cy="2.92505" rx="2.50719" ry="2.92505" transform="matrix(-1 0 0 1 93.3231 50.4223)" fill="white"/>
<circle cx="1.25359" cy="1.25359" r="1.25359" transform="matrix(-1 0 0 1 88.3087 56.2724)" fill="white"/>
<path d="M73.7245 68.4025C73.7245 65.5697 69.6709 63.7422 64.6707 63.7422C59.6704 63.7422 55.6169 65.5697 55.6169 68.4025C55.6169 71.2354 59.6704 74.6922 64.6707 74.6922C69.6709 74.6922 73.7245 71.2354 73.7245 68.4025Z" fill="#433D3C"/>
<circle cx="68.8247" cy="68.3012" r="1.27818" fill="white"/>
<path d="M64.6297 67.3672V76.7896C64.6297 79.8667 67.1242 82.3612 70.2013 82.3612H70.9797C73.6269 82.3612 75.7728 80.2152 75.7728 77.568V77.568" stroke="#433D3C" stroke-width="2.34332" stroke-linecap="round" stroke-linejoin="round"/>
<path d="M64.6297 67.3672V76.7896C64.6297 79.8667 62.1353 82.3612 59.0582 82.3612H58.2798C55.6326 82.3612 53.4866 80.2152 53.4866 77.568V77.568" stroke="#433D3C" stroke-width="2.34332" stroke-linecap="round" stroke-linejoin="round"/>
<ellipse cx="31.2006" cy="80.6757" rx="6.68583" ry="4.90294" fill="#FFCEB9"/>
<ellipse cx="96.9446" cy="80.6757" rx="6.68583" ry="4.90294" fill="#FFCEB9"/>
<path d="M43.6901 23.1027L44.8715 17.9808C45.2234 16.4558 44.065 15 42.5 15C40.9349 15 39.7767 16.4558 40.1285 17.9808L41.3099 23.1027L41.8867 25.719L43.2946 25.6275L43.6901 23.1027Z" fill="#FFE591"/>
<path d="M44.8973 26.6901L50.0192 27.8715C51.5442 28.2233 53 27.065 53 25.4999C53 23.9348 51.5442 22.7766 50.0192 23.1283L44.8973 24.3097L42.4022 24.8223V26.001L44.8973 26.6901Z" fill="#FFE591"/>
<path d="M40.1027 26.6901L34.9808 27.8715C33.4558 28.2234 32 27.065 32 25.5C32 23.9349 33.4558 22.7766 34.9808 23.1284L40.1027 24.3098L41.7804 24.7151L42.1004 26.2331L40.1027 26.6901Z" fill="#FFE591"/>
<path d="M41.0621 22.0287L38.8601 18.5061C38.0305 17.179 36.182 16.9686 35.0754 18.0753C33.9687 19.1819 34.1791 21.0304 35.5062 21.86L39.0288 24.0621L41.5207 25.719L42.5 24.6963L41.0621 22.0287Z" fill="#FFE591"/>
<path d="M45.9712 24.0621L49.4938 21.8601C50.8209 21.0305 51.0313 19.182 49.9246 18.0754C48.818 16.9687 46.9696 17.1791 46.14 18.5062L43.9379 22.0288L42.1005 24.9787L43.0297 26.2758L45.9712 24.0621Z" fill="#FFE591"/>
<path d="M45.9712 26.9378L49.4938 29.1399C50.8209 29.9695 51.0313 31.8179 49.9246 32.9246C48.818 34.0312 46.9696 33.8208 46.14 32.4937L43.9379 28.9712L42.2088 26.629L43.6166 25.3304L45.9712 26.9378Z" fill="#FFE591"/>
<path d="M41.0621 28.9712L38.8601 32.4938C38.0305 33.8209 36.182 34.0313 35.0754 32.9246C33.9687 31.818 34.1791 29.9696 35.5062 29.14L39.0288 26.9379L42.1004 25.0619L42.8883 25.723L41.0621 28.9712Z" fill="#FFE591"/>
<path d="M43.8484 28.0436L45.011 33.0838C45.3572 34.5845 44.2174 36.0171 42.6773 36.0171C41.1372 36.0171 39.9974 34.5845 40.3435 33.0838L41.5061 28.0436L41.9532 25.3125L43.0869 25.1886L43.8484 28.0436Z" fill="#FFE591"/>
<path d="M42.5003 27.9726C43.8657 27.9726 44.9726 26.8657 44.9726 25.5004C44.9726 24.135 43.8657 23.0281 42.5003 23.0281C41.1349 23.0281 40.0281 24.135 40.0281 25.5004C40.0281 26.8657 41.1349 27.9726 42.5003 27.9726Z" fill="#FFD500"/>
<g style="mix-blend-mode:multiply">
<path fill-rule="evenodd" clip-rule="evenodd" d="M41.8745 27.8927C42.0744 27.9448 42.2841 27.9726 42.5003 27.9726C43.8657 27.9726 44.9726 26.8657 44.9726 25.5004C44.9726 24.135 43.8657 23.0281 42.5003 23.0281C42.3582 23.0281 42.2189 23.0401 42.0834 23.0631C43.1457 23.3403 43.9298 24.3063 43.9298 25.4555C43.9298 26.6787 43.0413 27.6945 41.8745 27.8927Z" fill="#FED402" fill-opacity="0.5"/>
</g>
</svg>
