<svg width="54" height="54" viewBox="0 0 54 54" fill="none" xmlns="http://www.w3.org/2000/svg">
<circle cx="27" cy="27" r="27" fill="#4857EC" fill-opacity="0.1"/>
<path d="M31.0802 31.4233C29.8824 32.532 28.2581 33.1549 26.5645 33.1549C24.8709 33.1549 23.2466 32.532 22.0488 31.4233M21.7742 24.2851H21.7902M31.3548 24.2851H31.3708M40.9355 27.2421C40.9355 28.9895 40.5638 30.7199 39.8416 32.3343C39.1193 33.9487 38.0608 35.4156 36.7263 36.6513C35.3919 37.8869 33.8076 38.8671 32.064 39.5358C30.3205 40.2045 28.4517 40.5487 26.5645 40.5487C24.6773 40.5487 22.8085 40.2045 21.065 39.5358C19.3214 38.8671 17.7372 37.8869 16.4027 36.6513C15.0682 35.4156 14.0097 33.9487 13.2875 32.3343C12.5653 30.7199 12.1935 28.9895 12.1935 27.2421C12.1935 23.713 13.7076 20.3284 16.4027 17.8329C19.0978 15.3374 22.7531 13.9355 26.5645 13.9355C30.3759 13.9355 34.0312 15.3374 36.7263 17.8329C39.4214 20.3284 40.9355 23.713 40.9355 27.2421Z" stroke="#4857EC" stroke-width="3" stroke-linecap="round" stroke-linejoin="round"/>
</svg>
