<svg width="140" height="130" viewBox="0 0 140 130" fill="none" xmlns="http://www.w3.org/2000/svg">
<g clip-path="url(#clip0_205_10)">
<path d="M68.3465 -0.19718C68.975 -1.64262 71.025 -1.64263 71.6535 -0.197184L73.0131 2.92973C73.5851 4.24523 75.3897 4.39841 76.1752 3.19814L78.0389 0.350533C78.9019 -0.96815 80.9223 -0.622885 81.2985 0.907559L82.1143 4.22704C82.4566 5.61969 84.209 6.07473 85.1856 5.02456L87.5007 2.53506C88.5736 1.38136 90.5061 2.06186 90.6194 3.63326L90.8659 7.05234C90.969 8.48201 92.6184 9.22559 93.758 8.3561L96.4604 6.29412C97.7123 5.33892 99.5012 6.33489 99.3487 7.90217L99.0158 11.3237C98.877 12.7494 100.376 13.7597 101.645 13.0963L104.661 11.5204C106.055 10.7914 107.649 12.074 107.235 13.5924L106.329 16.9174C105.953 18.2983 107.258 19.5461 108.621 19.1079L111.865 18.0643C113.363 17.5828 114.715 19.1149 114.052 20.5409L112.597 23.6719C111.994 24.9687 113.068 26.4177 114.484 26.2173L117.867 25.7385C119.423 25.5182 120.496 27.2556 119.603 28.5486L117.638 31.3924C116.826 32.5682 117.639 34.1766 119.067 34.2195L122.492 34.3224C124.062 34.3695 124.825 36.2622 123.726 37.3853L121.309 39.8568C120.311 40.8779 120.839 42.5996 122.239 42.8843L125.606 43.569C127.144 43.882 127.575 45.8757 126.304 46.7964L123.506 48.8218C122.349 49.6591 122.578 51.4447 123.909 51.9626L127.119 53.212C128.582 53.7814 128.669 55.8189 127.259 56.5107L124.164 58.0304C122.882 58.6596 122.806 60.458 124.029 61.1939L126.987 62.973C128.332 63.7822 128.072 65.805 126.566 66.2479L123.266 67.2182C121.896 67.621 121.515 69.3809 122.597 70.3135L125.214 72.5704C126.403 73.596 125.804 75.5462 124.244 75.7269L120.836 76.1218C119.417 76.2862 118.744 77.9573 119.653 79.0597L121.852 81.7273C122.851 82.9397 121.929 84.7613 120.361 84.6745L116.945 84.4854C115.518 84.4064 114.57 85.9406 115.281 87.1814L116.997 90.1799C117.778 91.5444 116.56 93.185 115.028 92.8329L111.703 92.0686C110.309 91.7481 109.114 93.1014 109.606 94.4451L110.791 97.6851C111.331 99.1625 109.852 100.575 108.401 99.9675L105.26 98.6529C103.94 98.1 102.532 99.2332 102.791 100.642L103.412 104.027C103.696 105.576 101.999 106.719 100.671 105.874L97.8021 104.048C96.5932 103.279 95.0133 104.159 95.0312 105.592L95.0742 109.025C95.0939 110.6 93.2264 111.441 92.0598 110.383L89.5423 108.099C88.4804 107.135 86.7733 107.737 86.5499 109.153L86.0165 112.534C85.7709 114.091 83.7873 114.606 82.8158 113.365L80.7191 110.687C79.8349 109.558 78.0499 109.863 77.5911 111.222L76.4993 114.457C75.9952 115.95 73.9526 116.123 73.2042 114.736L71.5868 111.738C70.9056 110.476 69.0944 110.476 68.4132 111.738L66.7958 114.736C66.0474 116.123 64.0048 115.95 63.5007 114.457L62.4088 111.222C61.9501 109.863 60.1651 109.558 59.2809 110.687L57.1842 113.365C56.2127 114.606 54.2291 114.091 53.9835 112.534L53.4501 109.153C53.2267 107.737 51.5196 107.135 50.4577 108.099L47.9402 110.383C46.7736 111.441 44.9061 110.6 44.9258 109.025L44.9688 105.592C44.9867 104.159 43.4068 103.279 42.1979 104.048L39.3292 105.874C38.0011 106.719 36.3036 105.576 36.5878 104.027L37.2091 100.642C37.4676 99.2332 36.0604 98.1 34.7395 98.6529L31.5988 99.9675C30.1476 100.575 28.6689 99.1625 29.2093 97.6851L30.3942 94.4451C30.8856 93.1014 29.6913 91.7481 28.297 92.0686L24.9718 92.8329C23.4396 93.185 22.222 91.5444 23.0031 90.1799L24.7195 87.1814C25.4297 85.9406 24.4824 84.4064 23.055 84.4854L19.6394 84.6745C18.0706 84.7613 17.149 82.9397 18.1484 81.7273L20.3475 79.0597C21.2562 77.9573 20.5829 76.2862 19.1637 76.1218L15.7559 75.7269C14.1958 75.5462 13.5966 73.596 14.7859 72.5704L17.4032 70.3135C18.4847 69.3809 18.1044 67.621 16.7343 67.2182L13.4338 66.2479C11.9276 65.805 11.6677 63.7822 13.0131 62.973L15.9708 61.1939C17.1943 60.458 17.1177 58.6596 15.8361 58.0304L12.7407 56.5107C11.3314 55.8189 11.4182 53.7814 12.8813 53.212L16.0912 51.9626C17.4218 51.4447 17.6511 49.6591 16.4944 48.8218L13.6965 46.7964C12.4246 45.8757 12.8557 43.882 14.3944 43.569L17.761 42.8843C19.1606 42.5996 19.6893 40.8779 18.6906 39.8568L16.2735 37.3853C15.1752 36.2622 15.9384 34.3695 17.5084 34.3224L20.9326 34.2195C22.3611 34.1766 23.1743 32.5682 22.3619 31.3924L20.397 28.5486C19.5037 27.2556 20.577 25.5182 22.1332 25.7385L25.5156 26.2173C26.9317 26.4177 28.0063 24.9687 27.4033 23.6719L25.9476 20.5409C25.2845 19.1149 26.6375 17.5828 28.1346 18.0643L31.379 19.1079C32.7415 19.5461 34.047 18.2983 33.6706 16.9174L32.7646 13.5924C32.3508 12.074 33.9446 10.7914 35.3393 11.5204L38.3545 13.0963C39.624 13.7597 41.123 12.7494 40.9842 11.3237L40.6513 7.90217C40.4988 6.33489 42.2877 5.33891 43.5396 6.29412L46.242 8.3561C47.3816 9.22559 49.031 8.48201 49.1341 7.05234L49.3806 3.63326C49.4939 2.06186 51.4264 1.38136 52.4993 2.53506L54.8144 5.02457C55.791 6.07474 57.5434 5.61969 57.8857 4.22704L58.7015 0.907555C59.0777 -0.622889 61.0981 -0.968155 61.9611 0.350528L63.8248 3.19814C64.6103 4.39842 66.4149 4.24523 66.9869 2.92973L68.3465 -0.19718Z" fill="#3B2514"/>
<path d="M68.3344 8.13022C68.9495 6.64701 71.0504 6.64702 71.6655 8.13022L72.3458 9.771C72.9074 11.1253 74.7646 11.2788 75.5409 10.035L76.4514 8.57622C77.3006 7.2156 79.3704 7.55786 79.7364 9.11943L80.1606 10.9291C80.4943 12.3528 82.2948 12.808 83.265 11.714L84.3897 10.4459C85.4504 9.24981 87.4277 9.92362 87.5374 11.5186L87.6717 13.4718C87.7715 14.9233 89.4608 15.6649 90.5969 14.756L91.928 13.691C93.17 12.6973 94.9967 13.6817 94.8497 15.2655L94.6591 17.3188C94.5256 18.7575 96.0539 19.7609 97.321 19.0665L98.8532 18.2268C100.239 17.4672 101.862 18.7317 101.465 20.2615L100.922 22.3511C100.561 23.7382 101.885 24.9711 103.243 24.5131L104.965 23.9322C106.453 23.4306 107.826 24.9368 107.19 26.3715L106.283 28.4167C105.707 29.7159 106.79 31.1397 108.196 30.9311L110.084 30.6509C111.625 30.422 112.712 32.125 111.854 33.4264L110.595 35.3365C109.82 36.514 110.635 38.0863 112.044 38.1307L114.052 38.194C115.601 38.2427 116.371 40.0929 115.314 41.2259L113.743 42.9108C112.787 43.9357 113.314 45.6116 114.685 45.9039L116.748 46.3438C118.257 46.6656 118.691 48.6106 117.462 49.5434L115.642 50.9249C114.53 51.7691 114.758 53.5028 116.051 54.0304L118.085 54.8606C119.511 55.4425 119.598 57.4283 118.229 58.133L116.243 59.1552C115.003 59.7939 114.926 61.539 116.107 62.2834L118.021 63.4906C119.324 64.3125 119.062 66.2847 117.59 66.7386L115.53 67.3736C114.194 67.7855 113.815 69.4961 114.852 70.434L116.557 71.9757C117.704 73.0124 117.1 74.9166 115.566 75.103L113.521 75.3514C112.125 75.521 111.452 77.1508 112.321 78.2557L113.742 80.0639C114.702 81.2853 113.771 83.0683 112.22 82.9782L110.265 82.8648C108.852 82.7827 107.9 84.2863 108.578 85.5287L109.664 87.5179C110.414 88.8906 109.18 90.5011 107.659 90.1347L105.85 89.6986C104.463 89.3642 103.255 90.6977 103.725 92.0452L104.45 94.1236C104.969 95.6108 103.465 97.0014 102.023 96.3684L100.393 95.6532C99.0756 95.0748 97.6446 96.1975 97.8927 97.6151L98.2569 99.6957C98.5303 101.258 96.7992 102.387 95.4801 101.506L94.0476 100.55C92.8413 99.7456 91.2267 100.622 91.244 102.072L91.268 104.082C91.287 105.677 89.378 106.509 88.2224 105.41L86.9939 104.241C85.9368 103.235 84.1853 103.836 83.9682 105.279L83.6845 107.165C83.4462 108.749 81.4151 109.259 80.4568 107.975L79.4379 106.611C78.5616 105.437 76.7257 105.743 76.2769 107.137L75.7208 108.864C75.2289 110.392 73.1357 110.564 72.4012 109.137L71.6032 107.586C70.9321 106.282 69.0678 106.282 68.3967 107.586L67.5987 109.137C66.8642 110.564 64.771 110.392 64.2791 108.864L63.723 107.137C63.2742 105.743 61.4383 105.437 60.562 106.611L59.5431 107.975C58.5848 109.259 56.5537 108.749 56.3154 107.165L56.0317 105.279C55.8146 103.836 54.0631 103.235 53.006 104.241L51.7775 105.41C50.6219 106.509 48.7129 105.677 48.7319 104.082L48.7559 102.072C48.7732 100.622 47.1586 99.7456 45.9523 100.55L44.5198 101.506C43.2007 102.386 41.4696 101.258 41.743 99.6957L42.1072 97.6151C42.3553 96.1975 40.9243 95.0748 39.6065 95.6532L37.9771 96.3684C36.5349 97.0014 35.0313 95.6108 35.55 94.1236L36.2749 92.0452C36.7449 90.6977 35.5373 89.3643 34.15 89.6986L32.3407 90.1347C30.8203 90.5011 29.5863 88.8906 30.3356 87.5179L31.4216 85.5287C32.0997 84.2863 31.1475 82.7827 29.7345 82.8648L27.7796 82.9782C26.2286 83.0683 25.2975 81.2853 26.2577 80.0639L27.6793 78.2557C28.5479 77.1507 27.8744 75.521 26.4793 75.3514L24.4343 75.103C22.9 74.9166 22.2961 73.0124 23.4426 71.9757L25.1477 70.434C26.185 69.4961 25.806 67.7855 24.4696 67.3736L22.41 66.7386C20.9376 66.2847 20.6761 64.3125 21.9793 63.4906L23.8933 62.2834C25.0735 61.539 24.9973 59.7939 23.7567 59.1552L21.7711 58.133C20.402 57.4283 20.4894 55.4425 21.915 54.8606L23.9492 54.0304C25.242 53.5028 25.4702 51.7691 24.358 50.9249L22.538 49.5434C21.3091 48.6106 21.7432 46.6656 23.252 46.3438L25.3147 45.9039C26.6854 45.6116 27.2131 43.9357 26.2572 42.9108L24.6858 41.2259C23.629 40.0929 24.399 38.2427 25.9476 38.194L27.9557 38.1307C29.3651 38.0863 30.1804 36.514 29.4045 35.3365L28.1459 33.4264C27.2884 32.125 28.3745 30.422 29.9162 30.6509L31.8039 30.9311C33.2096 31.1397 34.2929 29.7159 33.7169 28.4167L32.81 26.3715C32.1738 24.9368 33.5473 23.4306 35.0345 23.9322L36.7568 24.5131C38.1149 24.9711 39.4386 23.7382 39.0781 22.3511L38.5351 20.2615C38.1376 18.7317 39.7607 17.4672 41.1467 18.2268L42.6789 19.0665C43.946 19.7609 45.4743 18.7575 45.3408 17.3188L45.1502 15.2655C45.0032 13.6817 46.8299 12.6973 48.0719 13.691L49.403 14.756C50.5391 15.6649 52.2284 14.9233 52.3282 13.4718L52.4625 11.5186C52.5722 9.92362 54.5495 9.24981 55.6102 10.4459L56.7349 11.714C57.7051 12.808 59.5056 12.3528 59.8393 10.9291L60.2635 9.11943C60.6295 7.55786 62.6993 7.2156 63.5485 8.57622L64.459 10.035C65.2353 11.2788 67.0925 11.1253 67.6541 9.77099L68.3344 8.13022Z" fill="#61432F"/>
<circle cx="42.6106" cy="35.8233" r="8.82334" fill="#FFE6BB"/>
<circle cx="42.1581" cy="35.8129" r="6.10847" fill="#ECC79F"/>
<circle cx="95.4616" cy="35.8233" r="8.82334" fill="#FFE6BB"/>
<circle cx="95.0092" cy="35.8129" r="6.10847" fill="#ECC79F"/>
<path d="M32.3534 56.2051C37.4758 41.24 51.5837 31.0706 67.4011 31.0706H72.2541C88.2433 31.0706 102.43 41.3258 107.443 56.5086L107.604 56.9957C109.95 64.1009 111.489 71.4477 112.191 78.8973C114.234 100.572 97.185 119.304 75.4142 119.304H63.725C42.3567 119.304 25.5673 101.014 27.3916 79.724C28.0767 71.7296 29.755 63.7964 32.3534 56.2051Z" fill="#FFE6BB"/>
<circle cx="46.5106" cy="84.7447" r="4.89362" fill="#FFCEB9"/>
<circle cx="93.4893" cy="84.7447" r="4.89362" fill="#FFCEB9"/>
<path d="M83.7021 67.4346C83.7021 63.4814 77.8601 60.2766 69.4674 60.2766C61.0747 60.2766 56.2979 63.4814 56.2979 67.4346C56.2979 71.3879 61.0747 79.8511 69.4674 79.8511C77.8601 79.8511 83.7021 71.3879 83.7021 67.4346Z" fill="#ECC79F"/>
<rect x="68.9408" y="68.4328" width="1.60441" height="6.41763" rx="0.802204" fill="#3A211F"/>
<ellipse cx="70.0104" cy="67.0958" rx="4.81322" ry="2.94141" fill="#3A211F"/>
<circle cx="67.069" cy="66.0262" r="0.802204" fill="white"/>
<path d="M64.1276 72.4439C66.8016 74.8505 72.7439 74.8505 75.4179 72.4439" stroke="#3A211F" stroke-width="1.76467" stroke-linecap="round"/>
<circle cx="51.8936" cy="58.4156" r="4.40426" fill="#3A211F"/>
<circle cx="53.1131" cy="57.4652" r="1.46809" fill="white"/>
<circle cx="4.40426" cy="4.40426" r="4.40426" transform="matrix(-1 0 0 1 91.7924 54.0113)" fill="#3A211F"/>
<circle cx="1.46809" cy="1.46809" r="1.46809" transform="matrix(-1 0 0 1 90.5453 55.997)" fill="white"/>
<path d="M52.543 66.6872C46.8242 66.185 43.5801 66.0574 37.7021 66.2087" stroke="#ECC79F" stroke-width="1.46809" stroke-linecap="round" stroke-linejoin="round"/>
<path d="M51.073 75.4505C46.1342 76.2978 43.4303 76.9225 38.7694 78.4047" stroke="#ECC79F" stroke-width="1.46809" stroke-linecap="round" stroke-linejoin="round"/>
<path d="M50.6879 71.2334C45.5246 71.0263 43.0035 71.3475 37.8474 71.7879" stroke="#ECC79F" stroke-width="1.46809" stroke-linecap="round" stroke-linejoin="round"/>
<path d="M86.7984 66.6872C92.5172 66.185 95.7614 66.0574 101.639 66.2087" stroke="#ECC79F" stroke-width="1.46809" stroke-linecap="round" stroke-linejoin="round"/>
<path d="M88.2684 75.4505C93.2072 76.2978 95.9111 76.9225 100.572 78.4047" stroke="#ECC79F" stroke-width="1.46809" stroke-linecap="round" stroke-linejoin="round"/>
<path d="M87.6748 71.2334C92.8381 71.0263 95.3592 71.3475 100.515 71.7879" stroke="#ECC79F" stroke-width="1.46809" stroke-linecap="round" stroke-linejoin="round"/>
<path d="M16.7365 96.4513C30.2025 111.631 38.9515 115.38 60.2972 121.061" stroke="#412E1A" stroke-width="1.84133" stroke-linecap="round"/>
<path d="M11.0762 94.3364C11.6527 95.0905 12.4005 95.737 13.2013 96.2834C15.6533 97.9565 18.4437 95.6388 17.3292 92.8875C16.9776 92.0195 16.5345 91.1726 15.977 90.4433C15.4527 89.7575 14.8016 89.1421 14.1061 88.5997C11.7269 86.7443 8.72671 88.8981 9.73205 91.7428C10.0623 92.6772 10.4989 93.5811 11.0762 94.3364Z" fill="#412E1A"/>
<path d="M21.3674 99.0988C21.356 99.7894 21.4546 100.501 21.6078 101.178C21.9862 102.852 24.0073 102.885 24.4404 101.225C24.6157 100.553 24.7376 99.845 24.7489 99.1543C24.7603 98.4637 24.6617 97.7519 24.5085 97.0747C24.1302 95.4015 22.109 95.3683 21.6759 97.0282C21.5006 97.7 21.3787 98.4082 21.3674 99.0988Z" fill="#412E1A"/>
<path d="M19.1555 104.738C19.8462 104.735 20.5559 104.621 21.2298 104.454C22.8948 104.042 22.8864 102.02 21.2179 101.621C20.5427 101.46 19.8321 101.353 19.1414 101.356C18.4507 101.358 17.741 101.472 17.0671 101.639C15.4021 102.051 15.4105 104.073 17.079 104.472C17.7542 104.633 18.4648 104.74 19.1555 104.738Z" fill="#412E1A"/>
<path d="M28.2354 104.973C28.2241 105.663 28.3227 106.375 28.4758 107.052C28.8542 108.725 30.8753 108.759 31.3084 107.099C31.4837 106.427 31.6056 105.719 31.617 105.028C31.6283 104.338 31.5297 103.626 31.3766 102.949C30.9982 101.275 28.977 101.242 28.5439 102.902C28.3687 103.574 28.2467 104.282 28.2354 104.973Z" fill="#412E1A"/>
<path d="M26.9566 111.467C27.6264 111.298 28.288 111.018 28.902 110.693C30.419 109.893 29.9248 107.932 28.2095 107.946C27.5152 107.952 26.7997 108.019 26.1299 108.188C25.4602 108.356 24.7985 108.637 24.1846 108.961C22.6676 109.762 23.1617 111.722 24.8771 111.708C25.5713 111.702 26.2869 111.636 26.9566 111.467Z" fill="#412E1A"/>
<path d="M35.9176 110.351C35.9539 111.04 36.1013 111.744 36.3007 112.409C36.7935 114.052 38.8122 113.946 39.1298 112.26C39.2584 111.578 39.3312 110.863 39.2949 110.173C39.2586 109.483 39.1112 108.78 38.9117 108.115C38.4189 106.472 36.4003 106.578 36.0827 108.264C35.9541 108.946 35.8813 109.661 35.9176 110.351Z" fill="#412E1A"/>
<path d="M35.2113 116.236C35.8499 115.973 36.4644 115.6 37.0254 115.191C38.4116 114.18 37.6411 112.312 35.9456 112.572C35.2593 112.677 34.5608 112.846 33.9222 113.109C33.2836 113.372 32.6691 113.745 32.1081 114.154C30.7219 115.164 31.4924 117.033 33.1879 116.773C33.8742 116.668 34.5728 116.499 35.2113 116.236Z" fill="#412E1A"/>
<path d="M44.3992 113.786C44.4933 114.47 44.6993 115.159 44.954 115.805C45.5831 117.401 47.5856 117.125 47.7605 115.419C47.8313 114.728 47.8438 114.01 47.7497 113.325C47.6556 112.641 47.4495 111.953 47.1949 111.307C46.5658 109.711 44.5632 109.986 44.3883 111.693C44.3176 112.383 44.3051 113.102 44.3992 113.786Z" fill="#412E1A"/>
<path d="M44.5637 120.551C45.1666 120.214 45.7327 119.771 46.2415 119.299C47.4986 118.132 46.5125 116.367 44.8596 116.826C44.1906 117.012 43.5169 117.262 42.9139 117.599C42.311 117.936 41.7449 118.378 41.2361 118.851C39.979 120.018 40.9651 121.782 42.618 121.324C43.287 121.138 43.9607 120.888 44.5637 120.551Z" fill="#412E1A"/>
<path d="M122.341 95.9865C108.876 111.166 100.127 114.916 78.7808 120.596" stroke="#412E1A" stroke-width="1.84133" stroke-linecap="round"/>
<path d="M128.002 93.8717C127.425 94.6258 126.677 95.2723 125.877 95.8186C123.425 97.4918 120.634 95.1741 121.749 92.4227C122.1 91.5548 122.543 90.7079 123.101 89.9785C123.625 89.2928 124.276 88.6774 124.972 88.135C127.351 86.2796 130.351 88.4334 129.346 91.2781C129.016 92.2125 128.579 93.1164 128.002 93.8717Z" fill="#412E1A"/>
<path d="M117.711 98.6341C117.722 99.3247 117.623 100.037 117.47 100.714C117.092 102.387 115.071 102.42 114.638 100.76C114.462 100.088 114.34 99.3802 114.329 98.6896C114.318 97.999 114.416 97.2872 114.569 96.61C114.948 94.9368 116.969 94.9036 117.402 96.5635C117.577 97.2353 117.699 97.9435 117.711 98.6341Z" fill="#412E1A"/>
<path d="M119.922 104.273C119.232 104.27 118.522 104.157 117.848 103.99C116.183 103.577 116.192 101.556 117.86 101.157C118.535 100.995 119.246 100.888 119.937 100.891C120.627 100.894 121.337 101.007 122.011 101.174C123.676 101.587 123.667 103.608 121.999 104.007C121.324 104.168 120.613 104.276 119.922 104.273Z" fill="#412E1A"/>
<path d="M110.843 104.508C110.854 105.199 110.755 105.91 110.602 106.588C110.224 108.261 108.203 108.294 107.77 106.634C107.594 105.962 107.472 105.254 107.461 104.563C107.45 103.873 107.548 103.161 107.701 102.484C108.08 100.811 110.101 100.777 110.534 102.437C110.709 103.109 110.831 103.817 110.843 104.508Z" fill="#412E1A"/>
<path d="M112.121 111.002C111.452 110.833 110.79 110.553 110.176 110.229C108.659 109.428 109.153 107.468 110.868 107.482C111.563 107.487 112.278 107.554 112.948 107.723C113.618 107.892 114.279 108.172 114.893 108.496C116.41 109.297 115.916 111.257 114.201 111.243C113.507 111.238 112.791 111.171 112.121 111.002Z" fill="#412E1A"/>
<path d="M103.16 109.886C103.124 110.576 102.977 111.279 102.777 111.944C102.284 113.587 100.266 113.481 99.9482 111.795C99.8196 111.113 99.7468 110.398 99.7831 109.708C99.8193 109.019 99.9668 108.315 100.166 107.65C100.659 106.007 102.678 106.113 102.995 107.799C103.124 108.481 103.197 109.196 103.16 109.886Z" fill="#412E1A"/>
<path d="M103.867 115.771C103.228 115.508 102.614 115.135 102.053 114.726C100.666 113.716 101.437 111.847 103.132 112.107C103.819 112.212 104.517 112.381 105.156 112.644C105.794 112.908 106.409 113.28 106.97 113.689C108.356 114.7 107.586 116.569 105.89 116.308C105.204 116.203 104.505 116.034 103.867 115.771Z" fill="#412E1A"/>
<path d="M94.6788 113.321C94.5847 114.006 94.3786 114.694 94.124 115.34C93.4949 116.936 91.4923 116.661 91.3175 114.954C91.2467 114.263 91.2342 113.545 91.3283 112.861C91.4224 112.176 91.6284 111.488 91.8831 110.842C92.5122 109.246 94.5147 109.522 94.6896 111.228C94.7604 111.919 94.7729 112.637 94.6788 113.321Z" fill="#412E1A"/>
<path d="M94.5143 120.086C93.9113 119.749 93.3452 119.307 92.8365 118.834C91.5794 117.667 92.5654 115.902 94.2184 116.361C94.8874 116.547 95.5611 116.797 96.164 117.134C96.767 117.471 97.3331 117.913 97.8419 118.386C99.0989 119.553 98.1129 121.318 96.46 120.859C95.791 120.673 95.1173 120.423 94.5143 120.086Z" fill="#412E1A"/>
<path d="M77.0669 109.32C77.0841 109.138 77.0929 108.954 77.0929 108.768C77.0929 105.582 74.528 103 71.364 103C68.2 103 65.6351 105.582 65.6351 108.768C65.6351 109.077 65.6593 109.38 65.7058 109.676C63.7972 108.522 61.3266 108.501 59.4107 109.82C56.8189 111.605 56.2237 115.167 58.0813 117.777C59.0716 119.168 60.5591 120.007 62.1248 120.217C61.9658 120.392 61.8156 120.578 61.6753 120.775C59.8178 123.384 60.413 126.946 63.0047 128.731C65.5965 130.516 69.2034 129.848 71.061 127.239C71.1612 127.098 71.2543 126.954 71.3404 126.808C71.4264 126.954 71.5195 127.098 71.6198 127.239C73.4774 129.848 77.0843 130.516 79.6761 128.731C82.2678 126.946 82.863 123.384 81.0054 120.775C80.8405 120.543 80.6617 120.327 80.4711 120.126C81.8462 119.817 83.1228 119.016 84.005 117.777C85.8626 115.167 85.2674 111.605 82.6756 109.82C80.9824 108.654 78.8559 108.535 77.0669 109.32Z" fill="#FFCE05"/>
<circle cx="71.6877" cy="116.99" r="4.32162" transform="rotate(24.6549 71.6877 116.99)" fill="white" fill-opacity="0.6"/>
<path d="M57.9603 31.137C57.9688 31.0468 57.9732 30.9553 57.9732 30.8628C57.9732 29.2817 56.7001 28 55.1296 28C53.5592 28 52.2861 29.2817 52.2861 30.8628C52.2861 31.0163 52.2981 31.167 52.3212 31.3139C51.3738 30.7407 50.1475 30.7303 49.1965 31.3852C47.9101 32.2712 47.6147 34.0393 48.5367 35.3345C49.0282 36.0249 49.7666 36.4416 50.5437 36.5459C50.4648 36.6325 50.3902 36.7248 50.3206 36.8226C49.3986 38.1178 49.694 39.8859 50.9805 40.7719C52.2669 41.6579 54.0572 41.3262 54.9792 40.031C55.029 39.9611 55.0752 39.8898 55.1179 39.8174C55.1606 39.8898 55.2068 39.9611 55.2566 40.031C56.1786 41.3262 57.9689 41.6579 59.2554 40.7719C60.5418 39.8859 60.8372 38.1178 59.9152 36.8226C59.8333 36.7076 59.7446 36.6002 59.65 36.5006C60.3325 36.3473 60.9662 35.9495 61.404 35.3345C62.326 34.0393 62.0306 32.2712 60.7442 31.3852C59.9037 30.8064 58.8482 30.7473 57.9603 31.137Z" fill="white"/>
<circle cx="55.2903" cy="34.9439" r="2.14505" transform="rotate(24.6549 55.2903 34.9439)" fill="#FFE36B"/>
<path d="M73.0026 28.137C73.0112 28.0468 73.0156 27.9553 73.0156 27.8628C73.0156 26.2817 71.7371 25 70.1599 25C68.5828 25 67.3043 26.2817 67.3043 27.8628C67.3043 28.0163 67.3164 28.167 67.3396 28.3139C66.3882 27.7407 65.1566 27.7303 64.2016 28.3852C62.9097 29.2712 62.6131 31.0393 63.539 32.3345C64.0326 33.0249 64.7741 33.4416 65.5546 33.5459C65.4753 33.6325 65.4004 33.7248 65.3305 33.8226C64.4046 35.1178 64.7012 36.8859 65.9931 37.7719C67.285 38.6579 69.083 38.3262 70.0089 37.031C70.0589 36.9611 70.1053 36.8898 70.1482 36.8174C70.1911 36.8898 70.2375 36.9611 70.2874 37.031C71.2134 38.3262 73.0113 38.6579 74.3032 37.7719C75.5951 36.8859 75.8918 35.1178 74.9658 33.8226C74.8836 33.7076 74.7945 33.6002 74.6995 33.5006C75.3849 33.3473 76.0213 32.9495 76.461 32.3345C77.3869 31.0393 77.0903 29.2712 75.7984 28.3852C74.9544 27.8064 73.8944 27.7473 73.0026 28.137Z" fill="#FFCE05"/>
<ellipse cx="2.15259" cy="2.14664" rx="2.15259" ry="2.14664" transform="matrix(0.909505 0.415692 -0.418615 0.908164 69.2622 29.0996)" fill="white" fill-opacity="0.6"/>
<path d="M86.9603 31.137C86.9688 31.0468 86.9732 30.9553 86.9732 30.8628C86.9732 29.2817 85.7001 28 84.1296 28C82.5592 28 81.2861 29.2817 81.2861 30.8628C81.2861 31.0163 81.2981 31.167 81.3212 31.3139C80.3738 30.7407 79.1475 30.7303 78.1965 31.3852C76.9101 32.2712 76.6147 34.0393 77.5367 35.3345C78.0282 36.0249 78.7666 36.4416 79.5437 36.5459C79.4648 36.6325 79.3902 36.7248 79.3206 36.8226C78.3986 38.1178 78.694 39.8859 79.9805 40.7719C81.2669 41.6579 83.0572 41.3262 83.9792 40.031C84.029 39.9611 84.0752 39.8898 84.1179 39.8174C84.1606 39.8898 84.2068 39.9611 84.2566 40.031C85.1786 41.3262 86.9689 41.6579 88.2554 40.7719C89.5418 39.8859 89.8372 38.1178 88.9152 36.8226C88.8333 36.7076 88.7446 36.6002 88.65 36.5006C89.3325 36.3473 89.9662 35.9495 90.404 35.3345C91.326 34.0393 91.0306 32.2712 89.7442 31.3852C88.9037 30.8064 87.8482 30.7473 86.9603 31.137Z" fill="white"/>
<circle cx="84.2903" cy="34.9439" r="2.14505" transform="rotate(24.6549 84.2903 34.9439)" fill="#FFE36B"/>
</g>
<defs>
<clipPath id="clip0_205_10">
<rect width="140" height="130" fill="white"/>
</clipPath>
</defs>
</svg>
