<svg width="125" height="146" viewBox="0 0 125 146" fill="none" xmlns="http://www.w3.org/2000/svg">
<path d="M58.8369 19.0727C60.1147 14.3423 66.0696 10.349 66.0696 10.349C66.0696 10.349 68.7176 16.4403 67.4397 21.1707C66.1619 25.9012 60.6768 30.3123 60.6768 30.3123C60.6768 30.3123 57.559 23.8032 58.8369 19.0727Z" fill="#ACCC5F"/>
<path d="M55.8862 16.4706C51.7595 11.5054 42.1836 10.0954 42.1836 10.0954C42.1836 10.0954 42.0501 19.0022 46.1767 23.9675C50.3034 28.9328 59.5988 31.0497 59.5988 31.0497C59.5988 31.0497 60.0128 21.4359 55.8862 16.4706Z" fill="#BBD468"/>
<circle cx="19.5" cy="42.5232" r="19.5" fill="#454545"/>
<circle cx="18.5" cy="42.5" r="13.5" fill="#FFDED0"/>
<circle cx="105.5" cy="42.5232" r="19.5" fill="#454545"/>
<circle cx="105.5" cy="42.5" r="13.5" fill="#FFDED0"/>
<path d="M120 78.177C120 103.87 94.0325 128 62 128C29.9675 128 4 103.87 4 78.177C4 52.4839 29.9675 24 62 24C94.0325 24 120 52.4839 120 78.177Z" fill="#FBFBFB"/>
<circle cx="31" cy="73" r="13" fill="#454545"/>
<circle cx="35.3888" cy="70.5066" r="4.5" transform="rotate(-150 35.3888 70.5066)" fill="white"/>
<circle cx="29.3398" cy="78.4576" r="3" transform="rotate(-150 29.3398 78.4576)" fill="white"/>
<circle cx="95" cy="73" r="13" fill="#454545"/>
<circle cx="99.3888" cy="70.5066" r="4.5" transform="rotate(-150 99.3888 70.5066)" fill="white"/>
<circle cx="93.3398" cy="78.4576" r="3" transform="rotate(-150 93.3398 78.4576)" fill="white"/>
<ellipse cx="24.5" cy="94.5" rx="7.5" ry="5.5" fill="#FFC6AD"/>
<ellipse cx="101.5" cy="94.5" rx="7.5" ry="5.5" fill="#FFC6AD"/>
<rect x="61.9038" y="88.0093" width="2.14795" height="8.91294" rx="1.07397" fill="#454545"/>
<ellipse cx="62.935" cy="85.6118" rx="7.30303" ry="4.61181" fill="#454545"/>
<ellipse cx="59.1974" cy="83.5996" rx="1.15989" ry="1.11412" fill="white"/>
<path d="M55.5 94.4932C59.3663 97.8356 66.6337 97.8356 70.5 94.4932" stroke="#454545" stroke-width="2.5" stroke-linecap="round"/>
<path d="M52.4643 72.7857C52.4643 85.1805 41.9475 95.3214 28.8571 95.3214C15.7668 95.3214 5.25 85.1805 5.25 72.7857C5.25 60.3909 15.7668 50.25 28.8571 50.25C41.9475 50.25 52.4643 60.3909 52.4643 72.7857Z" stroke="#323232" stroke-width="2.5"/>
<path d="M118.75 72.7857C118.75 85.1805 108.233 95.3214 95.1428 95.3214C82.0525 95.3214 71.5357 85.1805 71.5357 72.7857C71.5357 60.3909 82.0525 50.25 95.1428 50.25C108.233 50.25 118.75 60.3909 118.75 72.7857Z" stroke="#323232" stroke-width="2.5"/>
<path d="M52.6095 71.0383C59.6834 69.8336 63.8348 69.8553 71.3905 71.0383V75.4286C64.1753 74.3306 60.0612 74.3152 52.6095 75.4286V71.0383Z" fill="#242424"/>
<path d="M86.4798 99.7165C86.7095 99.3474 86.5626 98.8596 86.1689 98.6752C81.7785 96.6185 79.152 95.0951 75.1302 92.3894C74.7702 92.1472 74.2777 92.272 74.0794 92.6578C70.3565 99.8984 68.0403 104.109 63.5148 111.155C59.2019 119.528 56.6268 124.134 51.5976 132.1C47.9381 139.53 45.6204 143.663 41.213 150.438C40.9975 150.77 41.088 151.214 41.4167 151.434C45.5326 154.179 48.1828 155.696 52.6534 157.827C53.0042 157.994 53.4257 157.852 53.6047 157.507C57.3264 150.33 59.6919 146.224 64.0584 139.19C68.4925 130.885 71.123 126.311 75.9756 118.245C79.8609 110.785 82.1412 106.691 86.4798 99.7165Z" fill="#BCD466"/>
<g style="mix-blend-mode:multiply" opacity="0.25">
<path fill-rule="evenodd" clip-rule="evenodd" d="M48.7422 155.872C46.296 154.574 44.1888 153.283 41.4167 151.434C41.088 151.214 40.9975 150.77 41.213 150.438C45.6204 143.663 47.9381 139.53 51.5976 132.1C56.6268 124.134 59.2019 119.528 63.5147 111.155C68.0403 104.109 70.3565 99.8984 74.0793 92.6578C74.2777 92.272 74.7702 92.1472 75.1302 92.3894C76.2057 93.113 77.1815 93.752 78.1179 94.3393C77.9336 94.3922 77.7699 94.5174 77.6744 94.7032C73.9515 101.944 71.6353 106.155 67.1098 113.2C62.7969 121.574 60.2218 126.179 55.1926 134.145C51.5331 141.575 49.2154 145.709 44.808 152.484C44.5925 152.815 44.683 153.26 45.0117 153.479C46.3764 154.389 47.58 155.165 48.7422 155.872ZM82.4202 96.823C83.5594 97.4232 84.7753 98.0223 86.1689 98.6752C86.3757 98.772 86.5144 98.9525 86.5662 99.1556C85.1047 98.4021 83.789 97.6606 82.4202 96.823Z" fill="#BCD466"/>
</g>
<path d="M82.4942 120.883C85.2568 124.879 84.4368 132.259 84.4368 132.259C84.4368 132.259 78.1042 130.641 75.3417 126.645C72.5791 122.648 72.7783 115.394 72.7783 115.394C72.7783 115.394 79.7317 116.887 82.4942 120.883Z" fill="#ACCC5F"/>
<path d="M88.4307 119.627C94.5185 117.116 99.226 108.141 99.226 108.141C99.226 108.141 90.9764 105.239 84.8886 107.751C78.8008 110.263 73.5342 118.741 73.5342 118.741C73.5342 118.741 82.3429 122.139 88.4307 119.627Z" fill="#BBD468"/>
<path d="M41.5782 126.334C38.5083 120.971 39.6057 112.14 39.6057 112.14C39.6057 112.14 46.8067 115.257 49.8766 120.62C52.9465 125.983 52.5612 134.774 52.5612 134.774C52.5612 134.774 44.6481 131.697 41.5782 126.334Z" fill="#ACCC5F"/>
<path d="M47.5404 121.908C47.1437 116.59 51.4077 110.041 51.4077 110.041C51.4077 110.041 56.0438 115.062 56.4404 120.379C56.8371 125.697 53.0817 132.482 53.0817 132.482C53.0817 132.482 47.937 127.225 47.5404 121.908Z" fill="#BBD468"/>
<rect width="14.3366" height="5.94194" rx="2.97097" transform="matrix(-0.86916 -0.494531 -0.494531 0.86916 77.4448 115.662)" fill="#8BB554"/>
<rect width="14.3366" height="5.94194" rx="2.97097" transform="matrix(-0.86916 -0.494531 -0.494531 0.86916 65.6909 136.32)" fill="#8BB554"/>
</svg>
