<svg width="140" height="130" viewBox="0 0 140 130" fill="none" xmlns="http://www.w3.org/2000/svg">
<g clip-path="url(#clip0_205_10)">
<path fill-rule="evenodd" clip-rule="evenodd" d="M77.7634 3.27985C80.3582 4.1817 81.6686 6.99375 80.6902 9.56074L77.051 19.1082C76.212 21.3093 73.9625 22.6156 71.7023 22.3745C71.3348 22.6345 70.9236 22.8482 70.4737 23.0046C67.8788 23.9065 64.982 22.5566 64.0036 19.9896L60.3644 10.4422C59.386 7.8752 60.6964 5.06316 63.2913 4.1613C65.8862 3.25945 68.7829 4.6093 69.7614 7.17629L70.3593 8.74505L71.2933 6.29484C72.2717 3.72785 75.1685 2.37799 77.7634 3.27985Z" fill="#282828"/>
<ellipse cx="70" cy="58.8515" rx="49" ry="48.2218" fill="#282828"/>
<path fill-rule="evenodd" clip-rule="evenodd" d="M26.5311 81.129C26.528 81.1074 26.525 81.0858 26.522 81.0642C23.5644 59.9326 33.4747 41.2313 48.6572 39.2938C56.4102 38.3044 64.0387 41.8777 70.042 48.4257C76.0453 41.8777 83.6739 38.3044 91.4268 39.2938C106.573 41.2266 116.472 59.8431 113.583 80.9124C105.447 96.4489 88.984 107.073 70 107.073C51.1044 107.073 34.7068 96.5476 26.5311 81.129Z" fill="white"/>
<ellipse cx="40.5" cy="77.9492" rx="7.5" ry="7.16165" fill="#FFC6AD"/>
<ellipse cx="99.5" cy="77.9492" rx="7.5" ry="7.16165" fill="#FFC6AD"/>
<g filter="url(#filter0_f_205_10)">
<path d="M21.2892 71.4842C21.4134 70.7378 22.2905 70.3923 22.901 70.8393C49.44 90.2681 91.9947 89.4051 116.65 70.8149C117.24 70.3693 118.102 70.6764 118.262 71.3989L122.628 91.0795C123.432 94.7021 121.647 98.4274 118.232 99.8779C86.5921 113.315 51.8243 113.291 22.2184 99.8065C19.0673 98.3712 17.3846 94.9502 17.9529 91.5346L21.2892 71.4842Z" fill="#8ED2C9"/>
</g>
<path d="M21.2892 71.4842C21.4134 70.7378 22.2905 70.3923 22.901 70.8393C49.44 90.2681 91.9947 89.4051 116.65 70.8149C117.24 70.3693 118.102 70.6764 118.262 71.3989L122.628 91.0795C123.432 94.7021 121.647 98.4274 118.232 99.8779C86.5921 113.315 51.8243 113.291 22.2184 99.8065C19.0673 98.3712 17.3846 94.9502 17.9529 91.5346L21.2892 71.4842Z" fill="#8ED2C9"/>
<g filter="url(#filter1_f_205_10)">
<path d="M85.9926 96.5696C84.8241 96.5696 83.9035 97.5258 84.0081 98.6371C85.097 110.206 86.7591 116.808 93.0865 125.211C93.5315 125.802 94.2981 126.087 95.0474 125.953L95.1403 125.937C95.6759 127.423 96.5568 128.614 97.5879 129.683C97.9621 130.071 98.5948 130.095 99.001 129.738C99.4071 129.381 99.4331 128.777 99.0589 128.389C98.2246 127.524 97.5621 126.633 97.1338 125.582L99.5366 125.154C100.058 126.785 100.987 128.064 102.088 129.205C102.462 129.593 103.095 129.618 103.501 129.261C103.907 128.903 103.933 128.299 103.559 127.911C102.646 126.965 101.938 125.986 101.518 124.801L103.613 124.428C104.146 125.95 105.039 127.163 106.088 128.25C106.462 128.638 107.095 128.663 107.501 128.306C107.907 127.948 107.933 127.344 107.559 126.956C106.705 126.071 106.031 125.158 105.604 124.074L107.697 123.701C108.236 125.118 109.092 126.263 110.088 127.296C110.462 127.683 111.095 127.708 111.501 127.351C111.907 126.993 111.933 126.389 111.559 126.002C110.765 125.178 110.126 124.331 109.697 123.345L111.787 122.973C112.329 124.286 113.146 125.364 114.088 126.341C114.462 126.728 115.095 126.753 115.501 126.396C115.907 126.039 115.933 125.435 115.559 125.047C114.826 124.287 114.225 123.506 113.8 122.615L115.884 122.244C116.424 123.455 117.2 124.466 118.088 125.386C118.462 125.774 119.095 125.798 119.501 125.441C119.907 125.084 119.933 124.48 119.559 124.092C118.887 123.396 118.327 122.683 117.911 121.883L119.987 121.513C120.521 122.626 121.256 123.568 122.088 124.431C122.462 124.819 123.095 124.843 123.501 124.486C123.907 124.129 123.933 123.525 123.559 123.137C122.818 122.369 122.212 121.58 121.786 120.676C122.239 120.094 122.341 119.277 121.93 118.573C117.581 111.121 115.458 106.073 113.658 98.1016C113.457 97.213 112.639 96.5696 111.687 96.5696H85.9926Z" fill="#8ED2C9"/>
</g>
<path fill-rule="evenodd" clip-rule="evenodd" d="M86.0009 96.5696C84.8294 96.5696 83.9075 97.575 84.018 98.7413C85.1072 110.247 86.7787 116.836 93.0898 125.216C93.5352 125.807 94.2791 126.09 95.0081 125.96L95.1352 125.938C95.6743 127.449 96.5656 128.654 97.6037 129.73C97.9872 130.128 98.6202 130.139 99.0177 129.755C99.4151 129.372 99.4265 128.739 99.043 128.341C98.2174 127.486 97.5646 126.608 97.1402 125.581L99.5325 125.155C100.057 126.811 100.997 128.105 102.104 129.253C102.487 129.65 103.12 129.661 103.518 129.278C103.915 128.895 103.926 128.261 103.543 127.864C102.637 126.925 101.94 125.961 101.523 124.8L103.608 124.429C104.145 125.977 105.048 127.204 106.104 128.298C106.487 128.695 107.12 128.707 107.518 128.323C107.915 127.94 107.926 127.307 107.543 126.909C106.697 126.032 106.033 125.133 105.61 124.073L107.691 123.702C108.235 125.143 109.101 126.303 110.104 127.343C110.487 127.74 111.12 127.752 111.518 127.368C111.915 126.985 111.926 126.352 111.543 125.954C110.758 125.14 110.129 124.307 109.704 123.344L111.78 122.974C112.327 124.311 113.154 125.403 114.104 126.388C114.487 126.785 115.12 126.797 115.518 126.413C115.915 126.03 115.926 125.397 115.543 124.999C114.82 124.249 114.229 123.483 113.808 122.613L115.876 122.245C116.421 123.48 117.208 124.504 118.104 125.433C118.487 125.831 119.12 125.842 119.518 125.458C119.915 125.075 119.926 124.442 119.543 124.044C118.882 123.359 118.332 122.66 117.921 121.881L119.979 121.515C120.518 122.65 121.263 123.606 122.104 124.478C122.487 124.876 123.12 124.887 123.518 124.504C123.915 124.12 123.926 123.487 123.543 123.09C122.79 122.309 122.18 121.51 121.757 120.595C122.18 119.979 122.259 119.137 121.839 118.417C117.561 111.067 115.455 106.041 113.67 98.1553C113.461 97.2335 112.647 96.5696 111.702 96.5696H86.0009Z" fill="#8ED2C9"/>
<path d="M98.1139 103.816C98.1817 103.778 98.2484 103.738 98.3136 103.694C99.4285 102.94 99.6969 101.472 98.9133 100.415C98.1296 99.3577 96.5906 99.1112 95.4758 99.8646C95.3675 99.9378 95.2673 100.018 95.1752 100.103C95.1066 99.1922 94.5021 98.3616 93.5657 98.0334C92.2991 97.5894 90.9049 98.233 90.4518 99.4709C90.2102 100.131 90.2849 100.826 90.5992 101.399C90.4987 101.388 90.3964 101.381 90.2927 101.381C88.9194 101.377 87.8201 102.419 87.8373 103.707C87.8545 104.995 88.9818 106.043 90.3551 106.046C90.4292 106.047 90.5025 106.044 90.5749 106.038C90.5451 106.101 90.5179 106.166 90.4935 106.233C90.0404 107.471 90.6999 108.835 91.9665 109.279C93.2331 109.723 94.6273 109.079 95.0804 107.841C95.1206 107.731 95.1521 107.62 95.1752 107.509C95.6238 107.896 96.2205 108.133 96.8727 108.134C98.246 108.138 99.3453 107.097 99.328 105.808C99.3168 104.967 98.8318 104.228 98.1139 103.816Z" fill="white"/>
<g style="mix-blend-mode:multiply">
<ellipse cx="1.80254" cy="1.82066" rx="1.80254" ry="1.82066" transform="matrix(0.189661 0.964732 -1.00026 0.179303 95.5765 101.767)" fill="#FED402"/>
</g>
<path d="M112.93 112.806C113.025 112.754 113.118 112.697 113.21 112.635C114.768 111.582 115.143 109.531 114.048 108.053C112.952 106.575 110.801 106.231 109.243 107.284C109.092 107.386 108.952 107.498 108.823 107.617C108.727 106.344 107.882 105.183 106.574 104.724C104.804 104.104 102.855 105.003 102.222 106.733C101.884 107.656 101.989 108.628 102.428 109.429C102.287 109.412 102.144 109.404 101.999 109.403C100.08 109.398 98.5437 110.853 98.5678 112.654C98.5919 114.455 100.167 115.918 102.087 115.923C102.19 115.924 102.293 115.92 102.394 115.912C102.352 116 102.314 116.091 102.28 116.184C101.647 117.915 102.569 119.82 104.339 120.441C106.109 121.061 108.058 120.162 108.691 118.432C108.747 118.278 108.791 118.123 108.823 117.968C109.45 118.508 110.284 118.839 111.196 118.842C113.115 118.847 114.651 117.391 114.627 115.591C114.612 114.414 113.934 113.382 112.93 112.806Z" fill="white"/>
<g style="mix-blend-mode:multiply">
<ellipse cx="2.51922" cy="2.54455" rx="2.51922" ry="2.54455" transform="matrix(0.189661 0.964732 -1.00026 0.179303 109.384 109.942)" fill="#FED402"/>
</g>
<ellipse cx="6.5" cy="6.20676" rx="6.5" ry="6.20676" transform="matrix(-1 0 0 1 54 59.3289)" fill="#282828"/>
<ellipse cx="1.5" cy="1.43233" rx="1.5" ry="1.43233" transform="matrix(-1 0 0 1 52 62.1936)" fill="white"/>
<ellipse cx="6.5" cy="6.20676" rx="6.5" ry="6.20676" transform="matrix(-1 0 0 1 99 59.3289)" fill="#282828"/>
<ellipse cx="1.5" cy="1.43233" rx="1.5" ry="1.43233" transform="matrix(-1 0 0 1 97 62.1936)" fill="white"/>
<path d="M79 67.4455C79 65.0723 74.9706 63.1485 70 63.1485C65.0294 63.1485 61 65.0723 61 67.4455C61 69.8186 65.0294 74.6071 70 74.6071C74.9706 74.6071 79 69.8186 79 67.4455Z" fill="#FED402"/>
</g>
<defs>
<filter id="filter0_f_205_10" x="16.8437" y="69.6073" width="106.976" height="41.3307" filterUnits="userSpaceOnUse" color-interpolation-filters="sRGB">
<feFlood flood-opacity="0" result="BackgroundImageFix"/>
<feBlend mode="normal" in="SourceGraphic" in2="BackgroundImageFix" result="shape"/>
<feGaussianBlur stdDeviation="0.5" result="effect1_foregroundBlur_205_10"/>
</filter>
<filter id="filter1_f_205_10" x="83" y="95.5696" width="41.8234" height="35.4211" filterUnits="userSpaceOnUse" color-interpolation-filters="sRGB">
<feFlood flood-opacity="0" result="BackgroundImageFix"/>
<feBlend mode="normal" in="SourceGraphic" in2="BackgroundImageFix" result="shape"/>
<feGaussianBlur stdDeviation="0.5" result="effect1_foregroundBlur_205_10"/>
</filter>
<clipPath id="clip0_205_10">
<rect width="140" height="130" fill="white"/>
</clipPath>
</defs>
</svg>
