<svg width="136" height="140" viewBox="0 0 136 140" fill="none" xmlns="http://www.w3.org/2000/svg">
<path d="M68 93H105V121C105 123.761 102.761 126 100 126H68V93Z" fill="#D6837C"/>
<path d="M25.9623 93.5009C24.5185 91.4952 24.8451 88.7627 26.6626 87.0883L69.6355 47.5L110.445 87.0387C112.207 88.7456 112.478 91.4577 111.016 93.4276C103.702 103.284 81.9014 131 68.0338 131C54.2004 131 33.103 103.42 25.9623 93.5009Z" fill="#FEB1AA"/>
<path d="M51.4699 108.949C51.5146 108.911 51.558 108.871 51.5998 108.828C52.3146 108.099 52.3073 106.933 51.5835 106.223C50.8597 105.513 49.6935 105.528 48.9787 106.257C48.9093 106.328 48.8468 106.403 48.791 106.481C48.6135 105.788 48.053 105.229 47.3187 105.101C46.3252 104.928 45.3897 105.609 45.2292 106.623C45.1436 107.163 45.2955 107.689 45.6065 108.089C45.5309 108.093 45.4548 108.102 45.3786 108.115C44.3681 108.295 43.7049 109.244 43.8973 110.234C44.0896 111.224 45.0647 111.88 46.0751 111.7C46.1297 111.69 46.1832 111.678 46.2356 111.664C46.2225 111.717 46.2116 111.771 46.203 111.825C46.0424 112.839 46.7175 113.801 47.7109 113.975C48.7044 114.148 49.6399 113.467 49.8004 112.453C49.8147 112.363 49.8224 112.273 49.8238 112.184C50.2077 112.422 50.6795 112.526 51.1594 112.44C52.1698 112.26 52.833 111.312 52.6407 110.322C52.515 109.675 52.0553 109.17 51.4699 108.949Z" fill="white" fill-opacity="0.6"/>
<path d="M71.1447 117.25C71.1509 117.186 71.154 117.12 71.154 117.054C71.154 115.919 70.2408 115 69.1142 115C67.9877 115 67.0745 115.919 67.0745 117.054C67.0745 117.164 67.0831 117.272 67.0997 117.377C66.4201 116.966 65.5405 116.958 64.8583 117.428C63.9355 118.064 63.7236 119.332 64.385 120.261C64.7376 120.756 65.2672 121.055 65.8247 121.13C65.7681 121.192 65.7146 121.259 65.6646 121.329C65.0033 122.258 65.2152 123.526 66.138 124.162C67.0607 124.797 68.345 124.559 69.0064 123.63C69.042 123.58 69.0752 123.529 69.1058 123.477C69.1365 123.529 69.1696 123.58 69.2053 123.63C69.8667 124.559 71.1509 124.797 72.0737 124.162C72.9965 123.526 73.2084 122.258 72.547 121.329C72.4883 121.246 72.4247 121.169 72.3568 121.098C72.8464 120.988 73.3009 120.702 73.615 120.261C74.2764 119.332 74.0645 118.064 73.1417 117.428C72.5388 117.013 71.7817 116.971 71.1447 117.25Z" fill="white" fill-opacity="0.6"/>
<path d="M91.4699 108.949C91.5146 108.911 91.558 108.871 91.5998 108.828C92.3146 108.099 92.3073 106.933 91.5835 106.223C90.8597 105.513 89.6935 105.528 88.9787 106.257C88.9093 106.328 88.8468 106.403 88.791 106.481C88.6135 105.788 88.053 105.229 87.3187 105.101C86.3252 104.928 85.3897 105.609 85.2292 106.623C85.1436 107.163 85.2955 107.689 85.6065 108.089C85.5309 108.093 85.4548 108.102 85.3786 108.115C84.3681 108.295 83.7049 109.244 83.8973 110.234C84.0896 111.224 85.0647 111.88 86.0751 111.7C86.1297 111.69 86.1832 111.678 86.2356 111.664C86.2225 111.717 86.2116 111.771 86.203 111.825C86.0424 112.839 86.7175 113.801 87.7109 113.975C88.7044 114.148 89.6399 113.467 89.8004 112.453C89.8147 112.363 89.8224 112.273 89.8238 112.184C90.2077 112.422 90.6795 112.526 91.1594 112.44C92.1698 112.26 92.833 111.312 92.6407 110.322C92.515 109.675 92.0553 109.17 91.4699 108.949Z" fill="white" fill-opacity="0.6"/>
<path d="M11.139 99.3824C31.847 115.925 55.5346 74.1968 55.5346 74.1968L34.4509 24.9425C34.4509 24.9425 -9.56911 82.8402 11.139 99.3824Z" fill="#FFD93C"/>
<path d="M124.532 99.3824C103.824 115.925 80.1367 74.1968 80.1367 74.1968L101.654 24.4256C101.654 24.4256 145.24 82.8402 124.532 99.3824Z" fill="#FFD93C"/>
<g style="mix-blend-mode:multiply">
<path d="M16.2359 92.4536C32.3358 105.315 50.7522 72.8725 50.7522 72.8725L34.3603 34.5786C34.3603 34.5786 0.135917 79.5925 16.2359 92.4536Z" fill="#FFD93C" fill-opacity="0.5"/>
</g>
<g style="mix-blend-mode:multiply">
<path d="M119.565 92.4536C103.465 105.315 85.0489 72.8725 85.0489 72.8725L101.441 34.5786C101.441 34.5786 135.665 79.5925 119.565 92.4536Z" fill="#FFD93C" fill-opacity="0.5"/>
</g>
<path fill-rule="evenodd" clip-rule="evenodd" d="M59.8591 10.4016C61.0345 5.77719 63.1167 -0.189457 65.9845 0.129189C69.5329 0.523456 70.375 6.93179 70.5748 9.95112H71.1539C71.2273 9.95112 71.3006 9.95131 71.3739 9.95169C73.06 6.56785 77.3346 -1.08456 80.9759 0.129189C83.8375 1.08307 82.0055 6.73062 80.1711 10.937C98.6748 15.0519 112.509 31.5636 112.509 51.3066V63.7133C112.509 86.5533 93.994 105.069 71.1539 105.069H65.9845C43.1445 105.069 24.629 86.5533 24.629 63.7133V51.3066C24.629 30.5479 39.9238 13.3615 59.8591 10.4016Z" fill="#FFF8DF"/>
<path fill-rule="evenodd" clip-rule="evenodd" d="M32.9019 88.533C49.1216 83.1939 60.8151 68.0816 60.8151 50.2727C60.8151 36.4221 53.7419 24.2025 42.9675 16.9431C31.9078 24.3657 24.629 36.9861 24.629 51.3066V63.7133C24.629 73.0262 27.7073 81.6201 32.9019 88.533Z" fill="#FFEBA8"/>
<path fill-rule="evenodd" clip-rule="evenodd" d="M104.237 88.533C88.0169 83.1939 76.3234 68.0816 76.3234 50.2727C76.3234 36.4221 83.3965 24.2025 94.171 16.9431C105.231 24.3657 112.509 36.9862 112.509 51.3066V63.7133C112.509 73.0262 109.431 81.6201 104.237 88.533Z" fill="#FFEBA8"/>
<ellipse cx="45.8237" cy="44.0694" rx="5.68638" ry="7.23721" fill="#744E1C"/>
<circle cx="43.239" cy="42.0016" r="2.06778" fill="white"/>
<ellipse cx="5.68638" cy="7.23721" rx="5.68638" ry="7.23721" transform="matrix(-1 0 0 1 94.9333 36.8322)" fill="#744E1C"/>
<circle cx="2.06778" cy="2.06778" r="2.06778" transform="matrix(-1 0 0 1 88.73 39.9339)" fill="white"/>
<path d="M61.849 72.9149L68.5692 68.8827L75.2895 72.9149V75.603C75.2895 79.3145 72.2807 82.3232 68.5692 82.3232C64.8577 82.3232 61.849 79.3145 61.849 75.603V72.9149Z" fill="#FEB1AA"/>
<path d="M77.3573 59.19C77.3573 61.6881 73.4227 63.7133 68.5692 63.7133C63.7157 63.7133 59.7812 61.6881 59.7812 59.19C59.7812 56.6919 63.7157 53.3744 68.5692 53.3744C73.4227 53.3744 77.3573 56.6919 77.3573 59.19Z" fill="#744E1C"/>
<circle cx="72.4463" cy="56.7345" r="1.29236" fill="white"/>
<path d="M68.5294 57.4304V66.5763C68.5294 69.5631 70.9507 71.9844 73.9374 71.9844H74.693C77.2625 71.9844 79.3455 69.9014 79.3455 67.3319V67.3319" stroke="#744E1C" stroke-width="2.27455" stroke-linecap="round" stroke-linejoin="round"/>
<path d="M68.5295 57.4304V66.5763C68.5295 69.5631 66.1082 71.9844 63.1214 71.9844H62.3659C59.7964 71.9844 57.7134 69.9014 57.7134 67.3319V67.3319" stroke="#744E1C" stroke-width="2.27455" stroke-linecap="round" stroke-linejoin="round"/>
<ellipse cx="41.1712" cy="58.5438" rx="8.2711" ry="5.16944" fill="#FFCABA"/>
<ellipse cx="94.9334" cy="58.5438" rx="8.2711" ry="5.16944" fill="#FFCABA"/>
</svg>
