<svg width="140" height="130" viewBox="0 0 140 130" fill="none" xmlns="http://www.w3.org/2000/svg">
<circle cx="27.5" cy="33.5232" r="19.5" fill="#FFAC42"/>
<circle cx="26.5" cy="33.5" r="13.5" fill="#FFE29C"/>
<circle cx="113.5" cy="33.5232" r="19.5" fill="#FFAC42"/>
<circle cx="113.5" cy="33.5001" r="13.5" fill="#FFE29C"/>
<path d="M65.8304 11.5969C65.7769 9.11216 67.7478 7.05455 70.2325 7.00106C72.7172 6.94758 74.7748 8.91847 74.8283 11.4032L74.9042 14.9293L76.0993 11.6459C76.9493 9.31046 79.5316 8.10632 81.867 8.95634C84.2024 9.80635 85.4065 12.3886 84.5565 14.724L80.4523 26.0004C79.6023 28.3358 77.02 29.5399 74.6846 28.6899C73.9368 28.4177 73.3051 27.968 72.8196 27.4057C72.189 27.7665 71.4619 27.9795 70.6844 27.9962C70.0474 28.0099 69.4384 27.8905 68.884 27.6636C68.4693 28.9327 67.4965 30.0053 66.1446 30.4973C63.8092 31.3473 61.2269 30.1432 60.3768 27.8078L56.2726 16.5315C55.4226 14.1961 56.6267 11.6138 58.9621 10.7638C61.2975 9.91377 63.8798 11.1179 64.7298 13.4533L65.942 16.7838L65.8304 11.5969Z" fill="#FFAC42"/>
<path d="M128 72.177C128 97.8702 102.033 122 70 122C37.9675 122 12 97.8702 12 72.177C12 46.4839 37.9675 18 70 18C102.033 18 128 46.4839 128 72.177Z" fill="#FFAC42"/>
<path fill-rule="evenodd" clip-rule="evenodd" d="M52.4434 40.319C52.1299 41.2098 50.8702 41.2098 50.5567 40.319L44.8398 24.071C49.5617 21.7041 54.6393 19.9372 59.9667 18.9369L52.4434 40.319ZM61.9173 18.6069L69.5567 40.319C69.8702 41.2098 71.1299 41.2098 71.4434 40.319L79.0296 18.7581C76.0872 18.2619 73.0715 18 70 18C67.2572 18 64.5587 18.2088 61.9173 18.6069ZM81.1083 19.1498L88.5567 40.319C88.8702 41.2098 90.1299 41.2098 90.4434 40.319L96.0078 24.5043C91.3635 22.0838 86.3625 20.2447 81.1083 19.1498Z" fill="#6B4A32"/>
<path fill-rule="evenodd" clip-rule="evenodd" d="M13.0558 62.9998C13.8426 59.521 15.0549 56.0585 16.6446 52.688L29.9225 59.0384C30.8233 59.4692 30.6058 60.8091 29.6149 60.9328L13.0558 62.9998ZM12.1525 75.5954C12.0514 74.4604 12 73.3203 12 72.1771C12 69.9068 12.2028 67.6147 12.5945 65.3224L28.6032 68.5078C29.6199 68.7101 29.6951 70.1353 28.7053 70.4434L12.1525 75.5954Z" fill="#6B4A32"/>
<path fill-rule="evenodd" clip-rule="evenodd" d="M127.885 75.1428C127.961 74.1574 128 73.1684 128 72.1771C128 70.0016 127.814 67.8061 127.454 65.6096L112.888 68.5078C111.872 68.7101 111.797 70.1353 112.786 70.4434L127.885 75.1428ZM123.627 53.2718C125.055 56.3957 126.159 59.5943 126.9 62.8081L111.877 60.9328C110.886 60.8091 110.668 59.4692 111.569 59.0384L123.627 53.2718Z" fill="#6B4A32"/>
<path fill-rule="evenodd" clip-rule="evenodd" d="M26.0598 103.956C27.2709 88.3815 46.7043 76 70.4999 76C93.8154 76 112.943 87.8869 114.845 103.018C104.207 114.322 88.0686 122 70 122C52.4363 122 36.6959 114.745 26.0598 103.956Z" fill="#FFE29C"/>
<circle cx="45" cy="65" r="9" fill="#6B4A32"/>
<circle cx="48.0383" cy="63.2739" r="3.11538" transform="rotate(-150 48.0383 63.2739)" fill="white"/>
<circle cx="43.8505" cy="68.7783" r="2.07692" transform="rotate(-150 43.8505 68.7783)" fill="white"/>
<circle cx="96" cy="65" r="9" fill="#6B4A32"/>
<circle cx="99.0383" cy="63.2739" r="3.11538" transform="rotate(-150 99.0383 63.2739)" fill="white"/>
<circle cx="94.8505" cy="68.7783" r="2.07692" transform="rotate(-150 94.8505 68.7783)" fill="white"/>
<path d="M71.0854 76V82.837C71.0854 85.0697 72.8954 86.8797 75.1281 86.8797H75.6929C77.6137 86.8797 79.1709 85.3226 79.1709 83.4018V83.4018" stroke="#6B4A32" stroke-width="2" stroke-linecap="round" stroke-linejoin="round"/>
<path d="M71.0854 76V82.837C71.0854 85.0697 69.2755 86.8797 67.0427 86.8797H66.4779C64.5571 86.8797 63 85.3226 63 83.4017V83.4017" stroke="#6B4A32" stroke-width="2" stroke-linecap="round" stroke-linejoin="round"/>
<ellipse cx="71" cy="76.6118" rx="8" ry="4.61181" fill="#6B4A32"/>
<ellipse cx="66.6974" cy="74.5996" rx="1.15989" ry="1.11412" fill="white"/>
<path d="M25.5133 80.55C19.6701 80.0369 16.3555 79.9065 10.3497 80.0611" stroke="#61432D" stroke-width="1.8" stroke-linecap="round" stroke-linejoin="round"/>
<path d="M24.9589 89.5038C19.3439 90.5302 16.2586 91.2596 10.9118 92.9393" stroke="#61432D" stroke-width="1.8" stroke-linecap="round" stroke-linejoin="round"/>
<path d="M24.6208 85.2153C18.7504 84.9797 15.884 85.3449 10.0218 85.8457" stroke="#61432D" stroke-width="1.8" stroke-linecap="round" stroke-linejoin="round"/>
<path d="M114.513 80.55C120.356 80.0369 123.671 79.9065 129.677 80.0611" stroke="#61432D" stroke-width="1.8" stroke-linecap="round" stroke-linejoin="round"/>
<path d="M115.068 89.5038C120.683 90.5302 123.768 91.2596 129.115 92.9393" stroke="#61432D" stroke-width="1.8" stroke-linecap="round" stroke-linejoin="round"/>
<path d="M115.406 85.2153C121.276 84.9797 124.143 85.3449 130.005 85.8457" stroke="#61432D" stroke-width="1.8" stroke-linecap="round" stroke-linejoin="round"/>
</svg>
