<svg width="500" height="500" viewBox="0 0 500 500" fill="none" xmlns="http://www.w3.org/2000/svg">
<path d="M26.2222 10L30 13.7778L26.2222 17.5556" stroke="black" stroke-width="2" stroke-linecap="round" stroke-linejoin="round"/>
<path d="M13 19.4443V17.5554C13 16.5534 13.398 15.5925 14.1065 14.8841C14.815 14.1756 15.7758 13.7776 16.7778 13.7776H30" stroke="black" stroke-width="2" stroke-linecap="round" stroke-linejoin="round"/>
<path d="M16.7778 30.778L13 27.0002L16.7778 23.2224" stroke="black" stroke-width="2" stroke-linecap="round" stroke-linejoin="round"/>
<path d="M30 21.3333V23.2221C30 24.2241 29.602 25.185 28.8935 25.8934C28.185 26.6019 27.2242 26.9999 26.2222 26.9999H13" stroke="black" stroke-width="2" stroke-linecap="round" stroke-linejoin="round"/>
<path d="M67 29L57 21L67 13V29Z" fill="black" stroke="black" stroke-width="2" stroke-linecap="round" stroke-linejoin="round"/>
<path d="M53 28V14" stroke="black" stroke-width="2" stroke-linecap="round" stroke-linejoin="round"/>
<path d="M97 13L107 21L97 29V13Z" fill="black" stroke="black" stroke-width="2" stroke-linecap="round" stroke-linejoin="round"/>
<path d="M111 14V28" stroke="black" stroke-width="2" stroke-linecap="round" stroke-linejoin="round"/>
<path d="M134 28.15L136.347 22.45L137.325 20.075L140.65 12L143.975 20.075L144.953 22.45M147.3 28.15L144.953 22.45M144.953 22.45H136.346M145.4 12.95H153M147.3 17.7H153M149.2 22.45H153M151.1 27.2H153" stroke="black" stroke-width="2" stroke-linecap="round" stroke-linejoin="round"/>
<path d="M25.2222 49L29 52.7778L25.2222 56.5556" stroke="black" stroke-width="2" stroke-linecap="round" stroke-linejoin="round"/>
<path d="M12 58.4443V56.5554C12 55.5534 12.398 54.5925 13.1065 53.8841C13.815 53.1756 14.7758 52.7776 15.7778 52.7776H29" stroke="black" stroke-width="2" stroke-linecap="round" stroke-linejoin="round"/>
<path d="M15.7778 69.778L12 66.0002L15.7778 62.2224" stroke="black" stroke-width="2" stroke-linecap="round" stroke-linejoin="round"/>
<path d="M29 60.3333V62.222C29 63.224 28.602 64.185 27.8935 64.8934C27.185 65.6019 26.2242 65.9999 25.2222 65.9999H12" stroke="black" stroke-width="2" stroke-linecap="round" stroke-linejoin="round"/>
<path d="M19.6102 56.129H17.9502V55.209H20.6602V63.219H19.6102V56.129Z" fill="black"/>
<path d="M68.2513 58.7153L54.7513 50.4747C54.5264 50.3322 54.2667 50.2542 54.0005 50.2493C53.7344 50.2443 53.4719 50.3126 53.2419 50.4466C53.0085 50.5746 52.8139 50.7633 52.6786 50.9926C52.5433 51.2219 52.4724 51.4835 52.4732 51.7497V68.2497C52.4724 68.516 52.5433 68.7775 52.6786 69.0068C52.8139 69.2361 53.0085 69.4248 53.2419 69.5528C53.4719 69.6869 53.7344 69.7551 54.0005 69.7502C54.2667 69.7452 54.5264 69.6672 54.7513 69.5247L68.2513 61.2841C68.4726 61.1506 68.6556 60.9622 68.7826 60.7372C68.9097 60.5122 68.9764 60.2581 68.9764 59.9997C68.9764 59.7413 68.9097 59.4873 68.7826 59.2622C68.6556 59.0372 68.4726 58.8488 68.2513 58.7153Z" fill="white"/>
<path d="M97 68V52" stroke="white" stroke-width="3" stroke-linecap="round" stroke-linejoin="round"/>
<path d="M104 68V52" stroke="white" stroke-width="3" stroke-linecap="round" stroke-linejoin="round"/>
<path d="M25 108L28 105L25 102" stroke="black" stroke-width="2" stroke-linecap="round" stroke-linejoin="round"/>
<path d="M25 92L28 95L25 98" stroke="black" stroke-width="2" stroke-linecap="round" stroke-linejoin="round"/>
<path d="M28 95H24C22.8744 95 21.8357 95.3719 21 95.9996M10 105H14C15.1256 105 16.1643 104.628 17 104" stroke="black" stroke-width="2" stroke-linecap="round" stroke-linejoin="round"/>
<path d="M10 95H14C16.7614 95 19 97.2386 19 100C19 102.761 21.2386 105 24 105H28" stroke="black" stroke-width="2" stroke-linecap="round" stroke-linejoin="round"/>
<path d="M138 55L147.899 64.8995" stroke="black" stroke-width="2" stroke-linecap="round" stroke-linejoin="round"/>
<path d="M147.899 55L138 64.8995" stroke="black" stroke-width="2" stroke-linecap="round" stroke-linejoin="round"/>
</svg>
